<?xml version="1.0" encoding="utf-8"?>
<!-- Generator: Adobe Illustrator 21.1.0, SVG Export Plug-In . SVG Version: 6.00 Build 0)  -->
<svg version="1.1" id="Layer_1" xmlns="http://www.w3.org/2000/svg" xmlns:xlink="http://www.w3.org/1999/xlink" x="0px" y="0px"
	 viewBox="0 0 612 792" style="enable-background:new 0 0 612 792;" xml:space="preserve">
<style type="text/css">
	.st0{stroke:#FFFFFF;stroke-width:1.4719;stroke-miterlimit:10;}
	.st1{stroke:#000000;stroke-width:1.2727;stroke-miterlimit:10;}
	.st2{stroke:#FFFFFF;stroke-width:0.1227;stroke-miterlimit:10;}
	.st3{stroke:#000000;stroke-width:0.7983;stroke-miterlimit:10;}
	.st4{stroke:#FFFFFF;stroke-width:1.4366;stroke-miterlimit:10;}
	.st5{fill:none;stroke:#FFFFFF;stroke-width:1.4719;stroke-miterlimit:10;}
	.st6{fill:#EC008C;stroke:#EC008C;stroke-width:0.4979;stroke-miterlimit:10;}
	.st7{stroke:#000000;stroke-width:0.4979;stroke-miterlimit:10;}
	.st8{fill:none;stroke:#000000;stroke-width:0.4979;stroke-miterlimit:10;}
	.st9{fill:none;stroke:#FFFFFF;stroke-width:0.9957;stroke-miterlimit:10;}
	.st10{fill:none;stroke:#FFFFFF;stroke-width:0.9999;stroke-miterlimit:10;}
	.st11{fill:none;stroke:#FFFFFF;stroke-width:1.4936;stroke-miterlimit:10;}
	.st12{fill:none;stroke:#FFFFFF;stroke-width:1.5626;stroke-miterlimit:10;}
	.st13{fill:none;stroke:#FFFFFF;stroke-width:1.5528;stroke-miterlimit:10;}
	.st14{fill:none;stroke:#FFFFFF;stroke-width:1.3419;stroke-miterlimit:10;}
	.st15{fill:none;stroke:#FFFFFF;stroke-width:1.6999;stroke-miterlimit:10;}
	.st16{fill:none;stroke:#FFFFFF;stroke-width:1.8069;stroke-miterlimit:10;}
	.st17{stroke:#FFFFFF;stroke-width:1.6342;stroke-miterlimit:10;}
	.st18{fill:#FFFFFF;}
	.st19{fill:#FFFFFF;stroke:#FFFFFF;stroke-width:1.4936;stroke-miterlimit:10;}
	.st20{fill:#FFFFFF;stroke:#FFFFFF;stroke-width:0.3757;stroke-miterlimit:10;}
	.st21{fill:#FFFFFF;stroke:#FFFFFF;stroke-width:0.3354;stroke-miterlimit:10;}
	.st22{fill:#FFFFFF;stroke:#FFFFFF;stroke-width:0.2708;stroke-miterlimit:10;}
	.st23{fill:#FFFFFF;stroke:#FFFFFF;stroke-width:0.2061;stroke-miterlimit:10;}
	.st24{fill:none;stroke:#FFFFFF;stroke-width:0.4979;stroke-miterlimit:10;}
	.st25{fill:none;stroke:#FFFFFF;stroke-width:0.3647;stroke-miterlimit:10;}
	.st26{stroke:#FFFFFF;stroke-width:1.4781;stroke-miterlimit:10;}
	.st27{fill:none;stroke:#FFFFFF;stroke-width:1.4781;stroke-miterlimit:10;}
	.st28{fill:none;stroke:#FFFFFF;stroke-width:1.4575;stroke-miterlimit:10;}
	.st29{stroke:#FFFFFF;stroke-width:0.4927;stroke-miterlimit:10;}
	.st30{fill:none;stroke:#FFFFFF;stroke-width:0.4927;stroke-miterlimit:10;}
	.st31{fill:none;stroke:#FFFFFF;stroke-width:0.4282;stroke-miterlimit:10;}
	.st32{fill:none;stroke:#FFFFFF;stroke-width:0.6971;stroke-miterlimit:10;}
</style>
<g>
	<line class="st6" x1="220.6" y1="455.8" x2="212.1" y2="455.8"/>
	<path class="st7" d="M399.6,425.7l-17.8-38.1c-2.2-4.7-4.4-9.3-6.7-14c0.3,0.7,0.6,1.4,0.9,2.1c-0.6-1.7-4-10-13.5-14.1
		c-6.9-3-13.3-2.2-15.6-1.7c-4.2,0.4-8.3,0.8-12.5,1.2c-7.1,0.4-9.2-0.2-9.7-1c-0.1-0.1-1-1.6-1-1.6c0,0-1.4-10.5-4-29.8l-2.9-61.3
		c-13-21.2-44.2-6.5-44.2-6.5s-19.9,9.2-19.5,32.3l1.6,22.3l1.2,13.9l1.2,6.9l-0.4,8.1l-1.6,10.8c0,0-1.2,6.5-13.8,7.7
		c0,0-26.8-0.4-30.8,27.7l-1.6,10.8c0.3,5.6,0.6,11.2,0.9,16.7c0.2,7.8,0.5,15.5,0.7,23.3v15.8c0.1,8.7,0.3,17.4,0.4,26.2
		c0.3,2.6,0.7,5.2,1,7.8c0.1,2.2,0.1,4.5,0.2,6.8c0.6,11.6,1.9,22.5,3.6,32.7h23.9l6.4-6.6l122.1-1l-3-37.9l10.3-6.4l18.7-16.2
		C410.1,441.5,399.6,425.7,399.6,425.7z"/>
	<path class="st9" d="M285.6,356.1c0,0-8.8,9.2-3.6,34.5l1.2,18.9"/>
	<path class="st10" d="M292.1,410.7c0,0-3.6-20.1,6.3-34.2c0,0,5.7-15,1.9-20.7"/>
	<g>
		<polyline class="st11" points="336.6,468 339.4,468 341.9,468 		"/>
		<line class="st11" x1="275.1" y1="462" x2="248.6" y2="503"/>
		<path class="st11" d="M241.8,482.5c0,0,2.5,31.8,4.6,26.1C258,478,273.1,462,273.1,462h37.3l19.6,2.3l4.6,1.9l2.1,1.5l16.4,40.8
			l1.2-16"/>
		<path class="st11" d="M337.9,470.9l23-17.3l-2.6-36.2c0,0,19.3,23.5,9.1,31.2l-5,3.5c-1.5,1.5-1.2,1.3-1.2,1.3"/>
		<line class="st11" x1="379.7" y1="446.6" x2="370.4" y2="444.1"/>
	</g>
	<line class="st12" x1="230.5" y1="455.8" x2="244" y2="451.7"/>
	<path class="st13" d="M244.3,416.1c1.9,5,0.9,10.8,0.5,16.2c0,27.2-4.4,54.1-4.4,81.2c-0.1,1.2,0.3,2.5,0.6,3.6"/>
	<line class="st14" x1="212.1" y1="517.7" x2="241.8" y2="517.7"/>
	<g>
		<ellipse class="st9" cx="330.6" cy="400.3" rx="19.7" ry="10.9"/>
		<ellipse class="st9" cx="330.4" cy="400.1" rx="18.1" ry="8.4"/>
	</g>
	<line class="st15" x1="251.1" y1="511.6" x2="251.2" y2="528.4"/>
	<line class="st15" x1="258.7" y1="511.6" x2="258.8" y2="528.4"/>
	<line class="st15" x1="266.4" y1="511.6" x2="266.5" y2="528.3"/>
	<line class="st15" x1="274" y1="512.4" x2="274.1" y2="528.3"/>
	<line class="st15" x1="281.7" y1="512.3" x2="281.8" y2="528.2"/>
	<line class="st15" x1="289.3" y1="512.3" x2="289.4" y2="528.2"/>
	<line class="st15" x1="297" y1="512.2" x2="297.1" y2="528.2"/>
	<line class="st15" x1="304.6" y1="512.2" x2="304.7" y2="528.1"/>
	<line class="st15" x1="312.2" y1="512.2" x2="312.3" y2="528.1"/>
	<line class="st15" x1="319.9" y1="512.1" x2="320" y2="528"/>
	<line class="st15" x1="327.5" y1="512.1" x2="327.6" y2="528"/>
	<line class="st15" x1="335.2" y1="512" x2="335.3" y2="528"/>
	<line class="st15" x1="342.8" y1="512" x2="342.9" y2="527.9"/>
	<line class="st15" x1="350.5" y1="512" x2="350.6" y2="527.9"/>
	<line class="st15" x1="358.1" y1="511.9" x2="358.2" y2="527.8"/>
	<line class="st15" x1="365.8" y1="511.9" x2="365.8" y2="527.8"/>
	<line class="st16" x1="222.5" y1="518.1" x2="222.5" y2="536.1"/>
	<line class="st16" x1="230.1" y1="518.1" x2="230.1" y2="536.1"/>
	<line class="st16" x1="237.8" y1="518.1" x2="237.8" y2="536.1"/>
	<line class="st16" x1="245.4" y1="511.6" x2="245.4" y2="536.1"/>
	<path class="st17" d="M324.9,274.9c0,0-2.9-17-28.3,0l-13.4,8.5l-11.7,7.6c0,0-7.1,1.8-5.8,22l2.9,21.5l2.1,9l6.3,7.2l14.2,8.5
		c3.3,1.6,7,0.6,8.8-2.1c1.9-2.7,1-6.1,0.8-6.5c0.6-4,1.2-8.1,1.8-12.1c4.2-6.5,8.4-13.1,12.7-19.6l9.6-15.7l1.7-9.9v-8.1
		L324.9,274.9z"/>
	<g>
		<g>
			<path class="st18" d="M364,440.8c0,0.4,0,0.7,0,1.1c0.5-0.1,1-0.3,1.4-0.4c-0.8-3.2-1.5-6.4-2.3-9.6c-0.1-0.3-1.4,0.1-1.4,0.3
				c-0.4,1.8-0.5,3.2-0.4,5.1c0,0.2,1.4,0,1.4-0.4c0-3.5-0.5-6.7-1.5-10.1c-0.1-0.3-1.4,0.1-1.4,0.4c-0.2,0.6-0.2,1.3-0.1,2
				c0.5-0.1,1-0.3,1.4-0.4c-0.3-2.5-0.8-4.8-1.5-7.2c-0.5,0.1-1,0.3-1.4,0.4c0.3,0.5,0.6,0.9,0.9,1.4c0.2,0.3,1.5-0.1,1.4-0.4
				c-0.5-1.4-0.9-2.8-1.4-4.2c-0.5,0.1-1,0.3-1.4,0.4c2.2,5,4,10.2,5.5,15.5c0.1,0.3,1.5-0.1,1.4-0.4c-0.9-4-2-7.8-3.4-11.7
				c-0.5,0.1-1,0.3-1.4,0.4c1.9,3.2,9.5,17,4.5,19.4c0.4,0,0.8-0.1,1.1-0.1c-2.7-3.9-2.8-8.3-2.7-12.8c0-0.2-1.4,0-1.4,0.4
				c-0.2,2.4-0.5,4.5-1.1,6.8c0.5-0.1,1-0.2,1.4-0.3c-0.4-2.3-0.5-4.4-0.5-6.7c-0.5,0.1-1,0.3-1.4,0.4c0,1.8,0,3.6-0.2,5.4
				c0.5-0.1,1-0.3,1.4-0.4c0.1-3.6,0-7.1-0.3-10.7c0-0.2-1.4,0-1.4,0.4c0,2,0,4,0,6c0,0.2,1.4,0,1.4-0.4c0.1-2.8,0.1-5.6,0.2-8.4
				c-0.5,0.1-1,0.3-1.4,0.4c0.9,3,2,5.9,3.4,8.7c0.1,0.3,1.4-0.1,1.4-0.3c0.5-2.3,0.4-1.2,0.3-3.6c-0.5,0.1-1,0.3-1.4,0.4
				c1.4,4.2,2.8,8.3,4.3,12.5c0.1,0.3,1.5-0.1,1.4-0.4c-0.2-2.4-0.4-4.8-0.6-7.2c0-0.2-1.4,0-1.4,0.4c0,1.1-0.1,2.2-0.1,3.3
				c0.5-0.1,1-0.3,1.4-0.4c-0.6-1.6-1.3-3.1-1.9-4.7c-0.1-0.3-1.5,0.1-1.4,0.4c0.1,1.5,0.3,2.8,0.7,4.2c0.1,0.3,1.5-0.1,1.4-0.4
				c-0.1-2.5-0.7-4.3-2.1-6.4c-0.2-0.3-1.5,0.2-1.4,0.4c0.3,0.6,0.6,1.2,0.9,1.8c0.1,0.3,1.5-0.1,1.4-0.4c-0.6-1.9-1.4-3.4-2.6-5.1
				c-0.2-0.3-1.5,0.1-1.4,0.4c0.2,5.3,0.9,10.5,2,15.7c0.1,0.3,1.4-0.1,1.4-0.4c0.1-1.8,0.2-3.5,0.3-5.3c-0.5,0.1-1,0.3-1.4,0.4
				c0.5,2.5,1,4.9,1.4,7.4c0.1,0.3,1.5-0.1,1.4-0.4c-0.2-3.3-0.8-6.4-1.7-9.6c-0.1-0.3-1.5,0.1-1.4,0.4c0.2,3.6,0,7.2-0.4,10.8
				c0.5-0.1,1-0.3,1.4-0.4c-0.8-2.6-1.6-5.2-2.4-7.8c-0.1-0.3-1.4,0.1-1.4,0.4c-0.1,1.9-0.2,3.8-0.5,5.7c0.5-0.1,1-0.3,1.4-0.4
				c-0.3-2.4-0.4-4.8-0.4-7.3c0-0.2-1.4,0-1.4,0.4c-0.2,5.6,0.1,11.2,0.8,16.8c0,0.3,1.3-0.2,1.4-0.3c1.9-2.5,5-2.9,6.1-5.9
				c1-2.5,0.3-5.5,0.4-8.1c-0.5,0.1-1,0.3-1.4,0.4c1.6,4.9-0.3,9.8-4.8,12.4c0.4-0.1,0.8-0.1,1.3-0.2
				C363.9,447.4,363.9,444.1,364,440.8c-0.6,0.1-1.1,0.2-1.5,0.4c0.1,3-0.2,5.6-1,8.5c0.5-0.1,1-0.2,1.4-0.3c-0.6-2.7-0.9-5.3-0.8-8
				c0-0.2-1.4,0-1.4,0.4c-0.2,3.1-0.2,6.1-0.2,9.1c0,0.2,1.4-0.1,1.4-0.4c0.5-2.7,1-5.4,1.5-8.1c-0.5,0.1-1,0.3-1.4,0.4
				c0.2,2.7,0.2,5.2-0.1,7.9c0.5-0.1,1-0.3,1.4-0.4c-0.5-2.8-0.9-5.6-1.2-8.4c0-0.2-1.5,0-1.4,0.4c0.1,1.7,0.3,3.2,0.6,4.8
				c0.1,0.3,1.4-0.1,1.4-0.3c1-3.3,1.4-6.3,1.3-9.7c0-0.2-1.5,0-1.4,0.4c0.1,2.4,0,4.7-0.3,7.1c0.5-0.1,1-0.3,1.4-0.4
				c-0.4-0.9-0.6-1.8-0.6-2.7c0-0.3-1.3,0.1-1.4,0.3c-0.2,0.5-0.3,1-0.5,1.5c0.5-0.1,1-0.2,1.4-0.3c0.2-1.7,0.9-3.1,2.2-4.2
				c2.8-1.3,4-0.9,3.5,1.1c0.5-0.1,1-0.3,1.4-0.4c-0.1-0.4-0.3-0.9-0.4-1.3c-0.1-0.3-1.4,0.1-1.4,0.4c0,2.5,0,5,0,7.6
				c0,0.2,1.4-0.1,1.4-0.3c0.7-2.3,0.4-1.3,0.8-3.7c-0.5,0.1-1,0.3-1.4,0.4c0.3,2.7-0.4,4.6-2.4,6.5c0.5-0.1,0.9-0.2,1.4-0.3
				c0.3-0.7,0.5-1.3,0.8-2c0.1-0.1-1.2,0-1.4,0.3c-0.3,0.5-0.6,1.1-0.8,1.6c-0.4,0-0.8,0.1-1.1,0.1c-0.1,1,2.5-3.1,2.4-2.9
				c0.6-1.4,1-2.8,1.3-4.3c-0.5,0.1-1,0.2-1.4,0.3c-0.5,2.9-1.3,5.5-2.5,8.2c0.5-0.1,1-0.2,1.4-0.3c0.5-3.1,1-6.3,1.5-9.4
				c0-0.2-1.3,0-1.4,0.3c-0.6,1.7-1.3,3.3-2.1,5c0.5-0.1,1-0.2,1.4-0.3c0-0.6,0-1.2,0-1.7c0-0.2-1.4,0.1-1.4,0.3
				c-0.6,2.2-1.2,4.4-1.8,6.6c0.5-0.1,1-0.2,1.4-0.3c0.3-1.7,0.7-3.2,1.4-4.8c-0.5,0.1-0.9,0.2-1.4,0.4c-0.1,0-0.3,1.5-0.1,1.8
				c0.2,0.3,1.1-0.1,1.4-0.3c0.1-0.1,0.2-0.1,0.2-0.2c0,0,0.1-0.1,0.1-0.1c0-0.1-0.1-0.1-0.1-0.2c-0.2-0.2-1.4,0-1.4,0.3
				c0,0.4,0,0.8,0,1.2c-0.1,0-0.5,0.2-0.5,0.3c0,0.1,0.1,0.1,0.1,0.2c0.1,0.3,1.2-0.1,1.4-0.3c1.9-2,2.7-5.3,4.7-7.5
				c-0.5,0.1-1,0.2-1.4,0.3c1.7,4.6-3.5,7.1-6,10.1c0.5-0.1,1-0.2,1.4-0.3c0-2,0-3.9,0-5.9c0-0.2-1.4,0-1.4,0.4c0,2,0,3.9,0,5.9
				c0,0.3,1.3-0.2,1.4-0.3c2.4-3.1,7.7-5.6,6-10.3c-0.1-0.4-1.3,0.2-1.4,0.3c-1.9,2.1-2.7,5.5-4.6,7.4c0.5-0.1,0.9-0.2,1.4-0.3
				c-0.2-0.4-0.2,0.8,0.3-1.6c-0.5,0.1-1,0.2-1.4,0.3c0,0.1,0,0.2,0,0.3c0.5-0.1,0.9-0.2,1.4-0.3c-0.5-0.7,0.8-1.2,0-1.9
				c-0.2-0.2-1.3,0.1-1.4,0.4c-0.6,1.6-1.1,3.2-1.4,4.9c0,0.1,1.3,0,1.4-0.3c0.6-2.2,1.2-4.4,1.8-6.6c-0.5,0.1-1,0.2-1.4,0.3
				c0,0.6,0,1.2,0,1.7c0,0.3,1.3-0.1,1.4-0.3c0.8-1.7,1.5-3.2,2.1-5c-0.5,0.1-1,0.2-1.4,0.3c-0.5,3.1-1,6.3-1.5,9.4
				c0,0.2,1.3-0.1,1.4-0.3c1.2-2.7,2-5.4,2.5-8.3c0-0.1-1.4,0-1.4,0.3c-0.7,3-1.8,5.7-3.5,8.3c-0.1,0.2,0.6,0.1,0.6,0.1
				c1.2-0.3,2-0.4,2.1-1.8c0-0.2-1,0.1-1.1,0.1c-1.5,0.6-1.3,0.5-2.7,1.3c-0.5,0.3,0.4,0.2,0.6,0.2c2.1-0.7,3.7-1.5,5.2-3.2
				c-0.5,0.1-0.9,0.2-1.4,0.3c-0.9,1.2-0.7,0.6-0.8,2.1c0,0.3,1.3-0.2,1.4-0.3c2-1.9,2.9-4,2.5-6.8c0-0.3-1.4,0.1-1.4,0.4
				c-0.3,1.2-0.5,2.4-0.8,3.6c0.5-0.1,1-0.2,1.4-0.3c0-2.5,0-5,0-7.6c-0.5,0.1-1,0.3-1.4,0.4c0.1,0.4,0.3,0.9,0.4,1.3
				c0.1,0.3,1.4-0.1,1.4-0.4c0.1-0.8,0.1-1.6-0.1-2.4c0-0.1-0.2-0.1-0.2-0.1c-4,0.1-7.5,2.1-8.3,6.3c0,0.1,1.3,0,1.4-0.3
				c0.2-0.5,0.3-1,0.5-1.5c-0.5,0.1-1,0.2-1.4,0.3c0.1,0.9,0.3,1.9,0.6,2.7c0.1,0.3,1.4-0.1,1.4-0.4c0.3-2.4,0.3-4.7,0.3-7.1
				c-0.5,0.1-1,0.3-1.4,0.4c0.1,3.3-0.3,6.4-1.2,9.6c0.5-0.1,1-0.2,1.4-0.3c-0.4-1.6-0.5-3.1-0.6-4.8c-0.5,0.1-1,0.3-1.4,0.4
				c0.3,2.8,0.7,5.6,1.2,8.4c0.1,0.3,1.4-0.1,1.4-0.4c0.3-2.7,0.4-5.2,0.1-7.9c0-0.3-1.4,0.1-1.4,0.4c-0.5,2.7-1,5.4-1.5,8.1
				c0.5-0.1,1-0.3,1.4-0.4c-0.1-3.1,0-6.1,0.2-9.1c-0.5,0.1-1,0.3-1.4,0.4c-0.1,2.8,0.2,5.3,0.8,8c0.1,0.3,1.4-0.1,1.4-0.3
				C363.6,446.5,364,443.8,364,440.8c-0.1-0.2-1.5,0-1.5,0.4c0,3.3,0,6.6,0,9.8c0,0.3,1.2-0.1,1.3-0.2c4.6-2.7,6.9-7.6,5.2-12.8
				c-0.1-0.3-1.4,0.1-1.4,0.4c-0.1,3.7,0.8,7.1-2,10c-1.5,1.5-3.2,2.3-4.5,4c0.5-0.1,1-0.2,1.4-0.3c-0.8-5.6-1-11.1-0.8-16.8
				c-0.5,0.1-1,0.3-1.4,0.4c0,2.4,0.1,4.8,0.4,7.3c0,0.3,1.4-0.1,1.4-0.4c0.2-1.9,0.4-3.7,0.5-5.7c-0.5,0.1-1,0.3-1.4,0.4
				c0.8,2.6,1.6,5.2,2.4,7.8c0.1,0.3,1.4-0.1,1.4-0.4c0.4-3.6,0.5-7.2,0.4-10.8c-0.5,0.1-1,0.3-1.4,0.4c0.9,3.2,1.5,6.3,1.7,9.6
				c0.5-0.1,1-0.3,1.4-0.4c-0.5-2.5-1-4.9-1.4-7.4c-0.1-0.3-1.4,0.1-1.4,0.4c-0.1,1.8-0.2,3.5-0.3,5.3c0.5-0.1,1-0.3,1.4-0.4
				c-1.1-5.2-1.8-10.4-2-15.7c-0.5,0.1-1,0.3-1.4,0.4c1.2,1.6,2,3.2,2.6,5.1c0.5-0.1,1-0.3,1.4-0.4c-0.3-0.6-0.6-1.2-0.9-1.8
				c-0.5,0.1-1,0.3-1.4,0.4c1.4,2.1,2,3.9,2.1,6.4c0.5-0.1,1-0.3,1.4-0.4c-0.4-1.5-0.6-2.7-0.7-4.2c-0.5,0.1-1,0.3-1.4,0.4
				c0.6,1.6,1.3,3.1,1.9,4.7c0.1,0.3,1.4-0.1,1.4-0.4c0-1.1,0.1-2.2,0.1-3.3c-0.5,0.1-1,0.3-1.4,0.4c0.2,2.4,0.4,4.8,0.6,7.2
				c0.5-0.1,1-0.3,1.4-0.4c-1.4-4.2-2.8-8.3-4.3-12.5c-0.1-0.3-1.5,0.1-1.4,0.4c-0.1,1.1-0.2,2.3-0.3,3.4c0.5-0.1,1-0.2,1.4-0.3
				c-1.4-2.8-2.5-5.7-3.4-8.7c-0.1-0.3-1.4,0.1-1.4,0.4c-0.1,2.8-0.1,5.6-0.2,8.4c0.5-0.1,1-0.3,1.4-0.4c0-2,0-4,0-6
				c-0.5,0.1-1,0.3-1.4,0.4c0.3,3.6,0.4,7.1,0.3,10.7c0,0.2,1.4,0,1.4-0.4c0.1-1.8,0.2-3.6,0.2-5.4c0-0.2-1.4,0-1.4,0.4
				c0,2.3,0.1,4.4,0.5,6.7c0,0.3,1.4-0.1,1.4-0.3c0.5-2.3,0.9-4.6,1.1-6.9c-0.5,0.1-1,0.3-1.4,0.4c-0.2,4.6-0.1,9,2.7,12.8
				c0.2,0.3,0.9,0,1.1-0.1c2.7-1.3,2.6-3.3,1.8-6.1c-1.3-4.8-3.3-9.6-5.7-13.9c-0.2-0.3-1.5,0.1-1.4,0.4c1.4,3.8,2.5,7.7,3.4,11.7
				c0.5-0.1,1-0.3,1.4-0.4c-1.4-5.3-3.3-10.4-5.5-15.5c-0.1-0.3-1.5,0.1-1.4,0.4c0.5,1.4,0.9,2.8,1.4,4.2c0.5-0.1,1-0.3,1.4-0.4
				c-0.3-0.5-0.6-0.9-0.9-1.4c-0.2-0.3-1.5,0.1-1.4,0.4c0.8,2.4,1.3,4.7,1.5,7.2c0,0.2,1.5,0,1.4-0.4c-0.1-0.7-0.1-1.3,0.1-2
				c-0.5,0.1-1,0.3-1.4,0.4c1,3.3,1.5,6.6,1.5,10.1c0.5-0.1,1-0.3,1.4-0.4c-0.3-1.7-0.2-3.4,0.4-5c-0.5,0.1-1,0.2-1.4,0.3
				c0.8,3.2,1.5,6.4,2.3,9.6c0.1,0.3,1.5-0.1,1.4-0.4c0-0.4,0-0.7,0-1.1C365.4,440.3,364,440.5,364,440.8L364,440.8z"/>
		</g>
	</g>
	<g>
		<g>
			<path class="st18" d="M361.8,436c0.8,0,1.1-1.1,0.1-1.1C361,434.9,360.8,436,361.8,436L361.8,436z"/>
		</g>
	</g>
	<g>
		<g>
			<path class="st18" d="M362.3,435.2c-0.2,0.1-0.4,0-0.6-0.1c-0.2,0.2-0.5,0.4-0.7,0.6c1.7-0.2,3.4-0.3,5.1-0.2c0.3,0,0.8,0,1-0.3
				c0.1-0.2,0.3-0.4-0.1-0.4c-1.9-0.1-3.8-0.1-5.8,0.2c-0.2,0-1.2,0.4-0.7,0.6c0.8,0.4,1.6,0.3,2.3-0.1
				C363.8,435.2,362.9,434.9,362.3,435.2L362.3,435.2z"/>
		</g>
	</g>
	<g>
		<g>
			<path class="st18" d="M364,434.9c1.3-0.3,2.2,0.4,2.5,1.5c0.2,0.6,1.4,0.4,1.5-0.2c0-0.9-0.1-1.6-0.5-2.5
				c-0.3-0.6-1.3-0.4-1.5,0.2c-0.3,1.6,0,3.1-0.1,4.7c-0.1,1.9-0.8,3.7-1.9,5.2c0.4,0.1,0.9,0.1,1.3,0.2c-0.1-1.2-0.1-2.4,0-3.7
				c0-0.8-1.4-0.6-1.5,0.1c-0.1,1.2-0.1,2.4,0,3.7c0,0.6,1,0.6,1.3,0.2c0.9-1.4,1.6-2.8,2-4.4c0.4-2-0.1-4.1,0.3-6.1
				c-0.5,0.1-1,0.2-1.5,0.2c0.3,0.8,0.5,1.3,0.4,2.2c0.5-0.1,1-0.2,1.5-0.2c-0.5-1.9-2.4-2.6-4.2-2.1
				C362.9,434.2,363.1,435.2,364,434.9L364,434.9z"/>
		</g>
	</g>
	<g>
		<g>
			<path class="st18" d="M363.9,449.5c0,0.4-0.1,0.6-0.4,0.9c-0.2,0.2-0.5,0.5-0.7,0.5c0.2,0,0.3,0.1,0.5,0.1
				c-0.2-0.1,0.1-0.8,0.2-0.9c0.2-0.4,0.4-0.6,0.7-0.9c-0.4,0-0.9-0.1-1.3-0.1c0,0.7-0.2,1.4-0.7,2c-0.2,0.2-0.1,0.5,0.2,0.6
				c0.3,0.1,0.8,0,1-0.3c0.6-0.7,1-1.5,1-2.4c0-0.7-1-0.3-1.3-0.1c-0.6,0.5-2.2,2.8-0.6,3c0.7,0.1,1.4-0.4,1.9-0.8
				c0.5-0.4,1-1,1-1.6C365.4,448.7,364,448.9,363.9,449.5L363.9,449.5z"/>
		</g>
	</g>
	<g>
		<g>
			<path class="st18" d="M359.4,435.5c1,0.1,2,0.3,3,0.6c0.6,0.2,1.2,0.5,1.8,0.3c1-0.2,1.4-1.2,0.5-1.9c-0.4,0.2-0.8,0.4-1.2,0.7
				c0.6,0.4,1.2,0.8,1.8,1.1c0.3,0.2,1.7-0.3,1.2-0.7c-0.9-0.7-1.8-1.2-2.9-1.6c-0.5-0.2-1.7,0.6-0.9,0.8c0.9,0.3,1.7,0.7,2.4,1.3
				c0.4-0.2,0.8-0.4,1.2-0.7c-0.6-0.3-1.2-0.7-1.8-1.1c-0.4-0.3-1.7,0.3-1.2,0.7c0.2,0.2,1.3,0.5,0.4,0.2c-0.4-0.1-0.9-0.2-1.3-0.3
				c-0.8-0.2-1.6-0.3-2.4-0.4C359.3,434.6,358.4,435.4,359.4,435.5L359.4,435.5z"/>
		</g>
	</g>
	<g>
		<g>
			<path class="st18" d="M365.8,434.9c0.1,0.2,0.2,0.5,0.3,0.7c0.1,0.4,1.1,0,1.3-0.2c0.2-0.1,0.3-0.3,0.5-0.4
				c-0.4,0.1-0.9,0.1-1.3,0.2c1,2.2-0.1,4.1-0.4,6.4c-0.1,0.5,1.3,0,1.4-0.2c0.2-0.2,0.3-0.5,0.5-0.8c-0.5,0.1-0.9,0.2-1.4,0.4
				c1.1,1.1,2.3,0.3,3.4-0.4c-0.4,0-0.8,0.1-1.3,0.1c-0.3,1.5-0.6,3-1.2,4.3c-0.8,1.7-2.1,3-3.9,3.7c-0.3,0.1-0.2,0.3,0.4,0.5
				c-0.4,0-0.8,0.1-1.3,0.1c-0.6,1.9-2.2,3.3-2.3,5.3c0,0.3,1.3,0,1.4-0.3c0.9-2.4,1.4-4.7,1.5-7.2c0-0.3-1.4-0.1-1.4,0.4
				c-0.1,2.6-0.6,4.7-1.5,7.1c0.5-0.1,1-0.2,1.4-0.3c0.1-1.7,1.8-3.6,2.3-5.1c0.1-0.4-1.1,0-1.3,0.1c-0.2,0.1-0.3,0.2-0.5,0.3
				c-0.6,0.4,0.8,0.3,1.1,0.1c4-2.7,5.6-4.3,6.6-9.2c0.1-0.5-1.1,0-1.3,0.1c-0.3,0-0.7,0-1,0c-0.3-0.3-1.2,0.1-1.4,0.4
				c-0.2,0.2-0.3,0.5-0.5,0.8c0.5-0.1,1-0.2,1.4-0.2c0.3-2.6,1.6-4,0.4-6.5c-0.2-0.3-1.1,0-1.3,0.2c-0.2,0.1-0.3,0.3-0.5,0.4
				c0.4-0.1,0.9-0.1,1.3-0.2c-0.1-0.2-0.2-0.5-0.3-0.7C367.1,434.1,365.7,434.5,365.8,434.9L365.8,434.9z"/>
		</g>
	</g>
	<g>
		<g>
			<path class="st18" d="M360.7,424.9c0.7,0.7,1.2,1.5,1.6,2.4c0.2,0.5,1.3,0,1.4-0.3c0.1-0.2,0.1-0.4,0-0.5
				c-0.3-0.4-1.6,0.1-1.4,0.4c0.1,0.1,0.1,0.2,0,0.4c0.5-0.1,1-0.2,1.4-0.3c-0.3-1-0.9-1.9-1.7-2.6
				C361.7,424,360.3,424.6,360.7,424.9L360.7,424.9z"/>
		</g>
	</g>
	<g>
		<g>
			<path d="M363.2,455.1c-0.3,0.1-0.6,0.2-0.9,0.3c0.2,0,0.4,0,0.7,0c0,0-0.1,0-0.1,0c0,0,0.1,0.1,0.1,0.1c-0.1-0.2,0.2-0.7,0.3-0.9
				c0.2-0.3,0.4-0.6,0.7-0.8c0.2-0.2-0.1-0.3-0.2-0.3c-0.5,0-1,0.1-1.4,0.3c-0.2,0.1-0.3,0.2-0.5,0.4c-0.1,0.1-0.3,0.4-0.4,0.5
				c0.3,0.1,0.6,0.2,0.8,0.3c0.4-0.3,0.8-0.7,1.2-1c-0.4,0-0.8,0-1.2-0.1c-0.3,0.3-0.5,0.6-0.7,1c-0.1,0.3,0.5,0.2,0.6,0.2
				c0.3,0,0.7-0.2,0.8-0.4c0.1-0.3,0.3-0.6,0.6-0.9c0.2-0.2-0.1-0.3-0.3-0.3c-0.3,0-0.7,0.1-0.9,0.3c-0.4,0.3-0.8,0.7-1.2,1
				c-0.6,0.5,0.6,0.4,0.8,0.3c0.3-0.1,0.5-0.3,0.8-0.5c0.1-0.1,0.2-0.2,0.3-0.3c0,0,0.1-0.1,0.1-0.1c0.2-0.2,0.1-0.2-0.3-0.1
				c-0.1-0.1-0.1-0.2-0.2-0.3c-0.3,0.3-0.6,0.6-0.8,1c-0.1,0.2-0.4,0.6-0.4,0.9c0,0.8,1.5,0.2,1.9,0c0.2-0.1,0.7-0.2,0.6-0.5
				C364,455,363.4,455.1,363.2,455.1L363.2,455.1z"/>
		</g>
	</g>
	<line class="st11" x1="367.6" y1="485.2" x2="347.8" y2="495.6"/>
	<line class="st19" x1="368.5" y1="511.6" x2="241.1" y2="511.6"/>
	<g>
		<g>
			<path class="st18" d="M365,433.1c-0.5-1-0.7-1.6-0.8-2.7c-0.5,0.2-0.9,0.3-1.4,0.5c1,0.9,1.6,1.6,2.3,2.9
				c0.3,0.5,1.5,0.2,1.4-0.4c-0.1-1.7-0.4-3.2-1-4.8c-0.2-0.5-1.6-0.2-1.4,0.4c0.5,1.6,1,3.2,1.7,4.8c0.2,0.5,1.5,0.2,1.4-0.4
				c-0.3-2.1-1.4-3.7-2.5-5.4c-1.4-2.3-2.9-4.6-4.3-6.8c-0.4,0.2-0.9,0.4-1.3,0.6c2,2.5,3.7,5.1,5.3,7.8c1.6,2.7,3.6,5.4,3.8,8.5
				c0,0.5,1.5,0.2,1.4-0.4c-0.2-2.8-2-5.3-3.4-7.7c-1.8-3.1-3.6-6-5.8-8.8c-0.3-0.4-1.7,0-1.3,0.6c2.2,3.5,6.3,8,6.8,12.1
				c0.5-0.1,1-0.3,1.4-0.4c-0.6-1.6-1.2-3.1-1.7-4.8c-0.5,0.1-1,0.3-1.4,0.4c0.6,1.6,0.9,3.1,1,4.8c0.5-0.1,1-0.3,1.4-0.4
				c-0.6-1.2-1.3-2.1-2.4-3.1c-0.4-0.3-1.4-0.1-1.4,0.5c0.1,1.1,0.3,1.8,0.8,2.7C363.8,434,365.3,433.6,365,433.1L365,433.1z"/>
		</g>
	</g>
	<g>
		<g>
			<path d="M362.5,454.3c-0.4,0.4-0.8,0.7-1.2,1.1c0.5-0.1,0.9-0.1,1.4-0.2c0.2-0.6,0.5-1,0.9-1.4c0.2-0.2-0.1-0.2-0.2-0.2
				c-0.3,0-0.6,0.1-0.9,0.2c-0.6,0.3-1.2,0.7-1.8,1.2c-0.2,0.2,0.1,0.2,0.3,0.2c0.3,0,0.7-0.1,0.9-0.3c0.5-0.3,1-0.7,1.5-1.2
				c-0.5,0.1-0.9,0.1-1.4,0.2c-0.2,0.4-0.5,0.7-0.9,1c0.4,0,0.8-0.1,1.3-0.1c0.3-0.5,0.6-0.9,1-1.3c-0.5,0.1-0.9,0.1-1.4,0.2
				c-0.3,0.5-0.7,0.9-1.2,1.3c0.4,0,0.9-0.1,1.3-0.1c0.4-0.4,0.7-0.9,1.1-1.3c0.2-0.2-0.2-0.3-0.3-0.2c-0.3,0-0.7,0.1-1,0.3
				c-0.5,0.4-1,0.7-1.4,1.1c-0.2,0.1-0.2,0.3,0,0.3c0.3,0.1,0.7-0.1,0.9-0.2c0.9-0.4,1.8-1,2.5-1.9c0.2-0.2-0.2-0.3-0.3-0.2
				c-0.3,0-0.7,0.1-1,0.3c-0.4,0.3-0.8,0.7-1.2,1c0.4,0,0.9-0.1,1.3-0.1c0.4-0.3,0.8-0.7,1.2-1c0.2-0.2-0.2-0.3-0.3-0.2
				c-0.3,0-0.7,0.1-1,0.3c-0.4,0.3-0.8,0.7-1.2,1c-0.2,0.2,0.2,0.3,0.3,0.2c0.3,0,0.7-0.1,1-0.3c0.4-0.3,0.8-0.7,1.2-1
				c-0.4,0-0.9,0.1-1.3,0.1c-0.5,0.7-1.2,1.2-2,1.5c0.3,0,0.6,0.1,1,0.1c0.6-0.4,1.1-0.8,1.6-1.3c-0.4,0-0.9,0.1-1.3,0.1
				c-0.4,0.4-0.7,0.9-1.1,1.3c-0.2,0.2,0.2,0.3,0.3,0.2c0.3,0,0.7-0.1,1-0.3c0.5-0.4,0.9-0.9,1.3-1.4c0.1-0.2-0.5-0.2-0.5-0.2
				c-0.3,0-0.7,0.1-0.9,0.3c-0.4,0.4-0.8,0.9-1.1,1.5c-0.1,0.2,0.3,0.2,0.4,0.2c0.3,0,0.6-0.1,0.9-0.3c0.5-0.4,0.9-0.8,1.2-1.3
				c0.1-0.2-0.4-0.2-0.5-0.2c-0.3,0-0.7,0.1-0.9,0.3c-0.4,0.4-0.8,0.8-1.3,1.1c0.4,0,0.8,0,1.2,0c0.4-0.4,0.8-0.7,1.3-0.9
				c-0.4,0-0.7,0-1.1,0c-0.5,0.4-0.9,0.9-1,1.5c-0.1,0.4,1.2-0.1,1.4-0.2c0.4-0.4,0.8-0.7,1.2-1.1c0.2-0.2-0.2-0.3-0.3-0.2
				C363.2,454,362.8,454.1,362.5,454.3L362.5,454.3z"/>
		</g>
	</g>
	<g>
		<g>
			<path class="st18" d="M363.6,448.9c-0.8,0.5-1.3,1.1-1.8,1.9c-0.5,0.7-1.2,1.2-1.2,2.1c0,0.5,1.1,0.1,1.3-0.1
				c0.3-0.3,0.6-0.5,1-0.6c-0.3-0.1-0.7-0.1-1-0.2c0,0.4-0.2,0.7-0.6,1c0.3,0.1,0.7,0.2,1,0.3c1.7-1.6,3.9-2.7,5.7-4.2
				c0.6-0.5-0.8-0.5-1.2-0.2c-1.8,1.5-4,2.6-5.7,4.2c-0.6,0.6,0.7,0.5,1,0.3c0.6-0.4,1-0.8,1.1-1.6c0.1-0.5-0.8-0.3-1-0.2
				c-0.6,0.2-1.1,0.5-1.6,1c0.4,0,0.9-0.1,1.3-0.1c0-0.6,0.7-1.1,1-1.5c0.4-0.7,0.8-1.2,1.5-1.7
				C365.3,448.7,364.1,448.6,363.6,448.9L363.6,448.9z"/>
		</g>
	</g>
	<g>
		<polygon class="st20" points="240.3,388.9 239.7,387.4 238.5,386.2 237.9,385.9 237,385.4 236.2,385.7 235.7,386.6 234.2,386.6 
			233.7,387.5 232.8,388 232.4,388.7 232.5,389.7 234,390.5 234,391.7 236.1,392.7 237,392.3 238.6,391.9 239.4,390.5 239.9,389.6 
					"/>
	</g>
	<g>
		<polygon class="st21" points="255.1,392.1 254.5,390.8 253.4,389.7 252.8,389.4 252,389 251.3,389.2 250.9,390 249.5,390 
			249,390.8 248.2,391.1 247.9,391.7 248,392.7 249.4,393.4 249.5,394.4 251.4,395.4 252.2,395 253.7,394.7 254.3,393.5 
			254.7,392.8 		"/>
	</g>
	<g>
		<polygon class="st22" points="329.5,493.7 329,492.6 328.1,491.7 327.6,491.5 327,491.1 326.4,491.3 326.1,491.9 324.9,491.9 
			324.6,492.6 323.9,492.9 323.6,493.4 323.7,494.1 324.9,494.7 324.9,495.5 326.5,496.3 327.1,496 328.3,495.7 328.8,494.8 
			329.2,494.2 		"/>
	</g>
	<g>
		<polygon class="st23" points="319.9,488.2 319.5,487.5 318.8,486.8 318.4,486.6 317.9,486.3 317.5,486.4 317.2,486.9 316.4,486.9 
			316.1,487.4 315.6,487.6 315.4,487.9 315.5,488.5 316.3,488.9 316.4,489.6 317.6,490.2 318.1,490 319,489.8 319.4,489.1 
			319.7,488.6 		"/>
	</g>
	<g>
		<polygon class="st24" points="232.2,397.4 235.1,394.4 237.9,396.8 239.7,394.9 247,401.3 241.7,391.4 244.6,390.4 243.4,389.3 
			245.1,384.2 241.1,385.9 241,382.7 238.9,384.8 235.6,375.8 233.7,381.6 231.7,382.6 229.2,382.4 232.2,385 228.7,389.1 
			231.1,389.9 227.4,393.2 231.9,392.4 		"/>
	</g>
	<g>
		<polygon class="st25" points="321.8,498.6 324.5,497 326,499.1 327.7,498 331.5,503.7 329.8,495.9 332.2,495.6 331.5,494.6 
			333.8,491.3 330.6,491.9 331.2,489.6 329.2,490.8 328.9,483.9 326.2,487.7 324.6,488.2 322.8,487.6 324.4,489.9 321,492.2 
			322.6,493.2 319.3,494.9 322.7,495.1 		"/>
	</g>
</g>
</svg>
