<?xml version="1.0" encoding="utf-8"?>
<!-- Generator: Adobe Illustrator 21.1.0, SVG Export Plug-In . SVG Version: 6.00 Build 0)  -->
<svg version="1.1" id="Layer_1" xmlns="http://www.w3.org/2000/svg" xmlns:xlink="http://www.w3.org/1999/xlink" x="0px" y="0px"
	 viewBox="0 0 612 792" style="enable-background:new 0 0 612 792;" xml:space="preserve">
<style type="text/css">
	.st0{stroke:#FFFFFF;stroke-width:1.4719;stroke-miterlimit:10;}
	.st1{stroke:#000000;stroke-width:1.2727;stroke-miterlimit:10;}
	.st2{stroke:#FFFFFF;stroke-width:0.1227;stroke-miterlimit:10;}
	.st3{stroke:#000000;stroke-width:0.7983;stroke-miterlimit:10;}
	.st4{stroke:#FFFFFF;stroke-width:1.4366;stroke-miterlimit:10;}
	.st5{fill:none;stroke:#FFFFFF;stroke-width:1.4719;stroke-miterlimit:10;}
	.st6{fill:#EC008C;stroke:#EC008C;stroke-width:0.4979;stroke-miterlimit:10;}
	.st7{stroke:#000000;stroke-width:0.4979;stroke-miterlimit:10;}
	.st8{fill:none;stroke:#000000;stroke-width:0.4979;stroke-miterlimit:10;}
	.st9{fill:none;stroke:#FFFFFF;stroke-width:0.9957;stroke-miterlimit:10;}
	.st10{fill:none;stroke:#FFFFFF;stroke-width:0.9999;stroke-miterlimit:10;}
	.st11{fill:none;stroke:#FFFFFF;stroke-width:1.4936;stroke-miterlimit:10;}
	.st12{fill:none;stroke:#FFFFFF;stroke-width:1.5626;stroke-miterlimit:10;}
	.st13{fill:none;stroke:#FFFFFF;stroke-width:1.5528;stroke-miterlimit:10;}
	.st14{fill:none;stroke:#FFFFFF;stroke-width:1.3419;stroke-miterlimit:10;}
	.st15{fill:none;stroke:#FFFFFF;stroke-width:1.6999;stroke-miterlimit:10;}
	.st16{fill:none;stroke:#FFFFFF;stroke-width:1.8069;stroke-miterlimit:10;}
	.st17{stroke:#FFFFFF;stroke-width:1.6342;stroke-miterlimit:10;}
	.st18{fill:#FFFFFF;}
	.st19{fill:#FFFFFF;stroke:#FFFFFF;stroke-width:1.4936;stroke-miterlimit:10;}
	.st20{fill:#FFFFFF;stroke:#FFFFFF;stroke-width:0.3757;stroke-miterlimit:10;}
	.st21{fill:#FFFFFF;stroke:#FFFFFF;stroke-width:0.3354;stroke-miterlimit:10;}
	.st22{fill:#FFFFFF;stroke:#FFFFFF;stroke-width:0.2708;stroke-miterlimit:10;}
	.st23{fill:#FFFFFF;stroke:#FFFFFF;stroke-width:0.2061;stroke-miterlimit:10;}
	.st24{fill:none;stroke:#FFFFFF;stroke-width:0.4979;stroke-miterlimit:10;}
	.st25{fill:none;stroke:#FFFFFF;stroke-width:0.3647;stroke-miterlimit:10;}
	.st26{stroke:#FFFFFF;stroke-width:1.4781;stroke-miterlimit:10;}
	.st27{fill:none;stroke:#FFFFFF;stroke-width:1.4781;stroke-miterlimit:10;}
	.st28{fill:none;stroke:#FFFFFF;stroke-width:1.4575;stroke-miterlimit:10;}
	.st29{stroke:#FFFFFF;stroke-width:0.4927;stroke-miterlimit:10;}
	.st30{fill:none;stroke:#FFFFFF;stroke-width:0.4927;stroke-miterlimit:10;}
	.st31{fill:none;stroke:#FFFFFF;stroke-width:0.4282;stroke-miterlimit:10;}
	.st32{fill:none;stroke:#FFFFFF;stroke-width:0.6971;stroke-miterlimit:10;}
</style>
<g>
	<g>
		<polyline class="st26" points="423.4,339.4 285.6,339.4 271.1,330.6 192.1,333.2 		"/>
		<path class="st26" d="M208.2,312.9c0.7-1.3,1.6-2.8,2.9-3.7c2.9-2.1,4,2.1,4.4,4.1"/>
		<polyline class="st26" points="191.4,327.7 181.1,327.7 181.1,350.3 191.4,350.3 		"/>
		<polyline class="st26" points="402.6,311 402.6,305.1 385.8,305.1 385.8,310.8 		"/>
		<path class="st26" d="M354.2,400.5c7.4-21.4-2.8-24.9-2.8-24.9h-14.2c0,0-9.1-0.6-9.1,11.1c0,0-1.3,15.2,9.7,13.8H354.2z"/>
		<path class="st26" d="M354.2,399.8c1.3,0.4,6.7,1.9,12.3-0.8c2.8-1.4,4.5-3.3,5.4-4.5c0.3-2.2,0.7-4.5,1-6.7
			c-0.6-5.7-3.3-10.4-7.4-11.7c-0.8-0.3-1.9-0.5-3.2-0.4c-3.6,0-7.2,0-10.8,0"/>
		<g>
			<g>
				<path class="st18" d="M310,339.9c14.3,0,14.3-22.2,0-22.2C295.7,317.7,295.7,339.9,310,339.9L310,339.9z"/>
			</g>
		</g>
		<path class="st26" d="M297.2,371.1c0,0,16.5-1.2,20.8,21.8c0.7,2,5.5,15.5,17.4,18.4c1.7,0.4,3.7,0.7,6.2,0.5
			c8.2,0.1,16.5,0.3,24.7,0.4c0,0,10.6-3.3,14.8,9l12.3,53c0,0,3.4,16,19.5,11.9l50.8,0.7c0,0,18.6,0.1,6.8-13.8l-22.9-40.7
			l-19.1-37l-5.5-24.2c0,0-2.5-10.7,18.2-14c0,0,6.4-2.9-3.4-8.6c0,0-21.4-8.2-14.9-14.4l9.6-11.5c0,0,2-5.8-5.7-3.7l-5.1,2.5
			c-0.7,0.4-1.4,0.9-2.1,1.3"/>
		<path class="st26" d="M421.8,335.5l-2.1-6.2v-11.5c-0.4-8.3-3-7-3-7l-211.4,2.1c0,0-12.7,0.7-13.1,10.2c0,0-2.5,21,2.1,45.2
			l107.6,2.1c17.7-0.4,35.3-0.7,53-1.1c10.4-0.9,19.1,1.5,21.7,7.1c0.4,0.8,0.7,1.8,0.8,3"/>
	</g>
	<polyline class="st27" points="191.8,333.2 271.5,330.5 286.2,339.4 421.5,337.3 	"/>
	<g>
		<path class="st27" d="M353.4,400.5c7.4-21.4-2.8-24.9-2.8-24.9h-14.2c0,0-9.1-0.6-9.1,11.1c0,0-1.3,15.2,9.7,13.8H353.4z"/>
		<path class="st28" d="M353.4,399.8c2,2.3,6.7,1.9,12.3-0.8c2.8-1.4,4.5-3.3,5.4-4.5c1-2.3,1-4.5,1-6.7c-0.6-5.7-3.3-10.4-7.4-11.7
			c-0.8-0.3-1.9-0.5-3.2-0.4c-3.6,0-7.2,0-10.8,0"/>
	</g>
	<g>
		<path class="st29" d="M183.5,386.6l-18.1-11.3c0,0-6.6-4.8-11.2,2c0,0-4.4,4.4,3.2,9.6l1.1,0.7l4,2.5l14.6,9.1
			c0,0,1.3,2.7,2.6,0.6l6.5-10.3C186.1,389.4,188.2,386,183.5,386.6z"/>
		<path class="st30" d="M183.3,386c0.1,3.1-1.2,6.4-3.1,9c-1.1,1.5-2.3,2.7-3.7,3.8"/>
		<path class="st30" d="M172.5,379.3c-1.5,4.8-4.2,9.9-8.2,12.9"/>
	</g>
	<g>
		<path class="st29" d="M204.7,409.4l-18.4,10.9c0,0-7.4,3.7-3.4,10.9c0,0,1.9,5.9,10,1.6l1.1-0.6l4-2.4l14.8-8.7c0,0,3,0.1,1.7-2
			l-6.2-10.5C208.4,408.4,206.4,405,204.7,409.4z"/>
		<path class="st30" d="M204.1,409.3c2.8,1.3,5.2,4,6.6,6.9c0.8,1.6,1.3,3.3,1.7,5"/>
		<path class="st30" d="M193.2,415.8c3.6,3.5,6.9,8.3,7.7,13.2"/>
	</g>
	<g>
		<path class="st29" d="M241.6,454.2l-20.9-4.3c0,0-7.9-2.2-9.8,5.8c0,0-2.6,5.6,6.4,7.9l1.2,0.3l4.6,0.9l16.8,3.4
			c0,0,2.1,2.1,2.7-0.4L245,456C245,456,245.8,452.1,241.6,454.2z"/>
		<path class="st30" d="M241.2,453.7c1.1,2.8,1.1,6.5,0.2,9.5c-0.5,1.7-1.2,3.3-2.2,4.8"/>
		<path class="st30" d="M228.7,451.3c0.3,5-0.5,10.7-3.2,15"/>
	</g>
	<g>
		<path class="st29" d="M167.4,333.7l-21.3,0.1c0,0-8.2-0.6-8.4,7.6c0,0-1.4,6,7.8,6.4l1.3,0l4.7,0l17.2-0.1c0,0,2.5,1.6,2.5-0.9
			l0-12.2C171.1,334.7,171.1,330.8,167.4,333.7z"/>
		<path class="st30" d="M166.9,333.3c1.7,2.6,2.4,6.1,2.2,9.3c-0.1,1.8-0.5,3.5-1.1,5.2"/>
		<path class="st30" d="M154.2,333.5c1.3,4.8,1.7,10.6-0.1,15.3"/>
	</g>
	<g>
		<g>
			<g>
				<path class="st18" d="M208.5,344.4c0.6,0.7,1.4,1.1,2.3,1.3c0.4,0.1,1-0.3,0.8-0.7c-0.4-0.8-1-1.4-1.6-1.9
					c-0.3,0.2-0.6,0.5-0.8,0.7c0.8,0.2,1.6,0.6,2.4,1c0.2-0.3,0.4-0.5,0.5-0.8c-0.9,0-1.7-0.7-2.5,0c-0.2,0.2-0.4,0.5-0.4,0.7
					c0,0.1,0,0.2,0,0.2c0.4,0,0.6-0.2,0.5-0.5c0.1-0.3,0-0.7,0-1c0-0.6-0.9-0.4-1.1-0.1c-0.2,0.3-0.3,0.5-0.4,0.8
					c-0.1,0.4,0.1,0.9-0.2,1.2c0.4,0,0.8,0,1.1,0c-0.1-0.7-0.1-1.4,0.1-2.1c-0.4,0.1-0.8,0.1-1.2,0.2c0.3,0.7,0.3,1.4-0.2,2.1
					c0.4,0,0.8-0.1,1.2-0.1c-0.1-0.5-0.1-1,0-1.6c0-0.6-1.2-0.4-1.3,0.1c-0.1,0.8-0.2,1.6-0.4,2.4c0.4,0,0.8-0.1,1.3-0.1
					c0.2-1.4,0.4-2.7,0.6-4c-0.4,0.1-0.8,0.2-1.2,0.3c0.3,0.6,0.8,1,1.4,1.4c0.3,0.2,1.3,0,1.1-0.5c-0.1-0.3-0.3-0.6-0.4-0.9
					c-0.4,0.1-0.8,0.3-1.2,0.4c0.3,0.3,0.6,0.6,0.9,0.9c0.4,0.4,1.5-0.1,1.1-0.5c-0.3-0.3-0.6-0.6-0.9-0.9c-0.3-0.3-1.4-0.1-1.2,0.4
					c0.1,0.3,0.3,0.6,0.4,0.9c0.4-0.2,0.7-0.3,1.1-0.5c-0.5-0.3-0.9-0.7-1.2-1.2c-0.2-0.4-1.1-0.1-1.2,0.3c-0.3,1.3-0.5,2.7-0.6,4
					c-0.1,0.6,1.1,0.4,1.3-0.1c0.2-0.8,0.3-1.6,0.4-2.4c-0.4,0-0.8,0.1-1.3,0.1c0,0.6,0,1.2,0,1.8c0.1,0.5,1.1,0.2,1.2-0.1
					c0.5-0.8,0.6-1.7,0.2-2.6c-0.2-0.5-1.1-0.2-1.2,0.2c-0.2,0.8-0.2,1.5-0.1,2.3c0.1,0.5,0.9,0.2,1.1,0c0.2-0.3,0.3-0.5,0.4-0.8
					c0.1-0.4-0.1-0.9,0.2-1.2c-0.4,0-0.8-0.1-1.1-0.1c0,0.5-0.2,1.6,0.1,2.1c0.3,0.4,0.9,0.3,1.2,0.2c0.5-0.2,0.7-0.6,0.7-1.1
					c0-0.2-0.2-0.1,0,0c0.2,0,0.3,0.1,0.5,0.1c0.4,0.1,0.7,0.1,1.1,0.1c0.3,0,1-0.5,0.5-0.8c-0.8-0.5-1.7-0.9-2.6-1.1
					c-0.4-0.1-1.4,0.3-0.8,0.7c0.6,0.5,1.1,1.1,1.5,1.8c0.3-0.2,0.5-0.5,0.8-0.7c-0.7-0.1-1.2-0.5-1.6-1
					C209.3,343.5,208.1,344,208.5,344.4L208.5,344.4z"/>
			</g>
		</g>
		<g>
			<g>
				<path class="st18" d="M215.5,342.3c0.3,1.3,0.4,2.6,0.5,4c0,0.6,1.3,0.4,1.3-0.1c0-1.4-0.2-2.8-0.5-4.2
					C216.6,341.4,215.3,341.8,215.5,342.3L215.5,342.3z"/>
			</g>
		</g>
		<g>
			<g>
				<path class="st18" d="M215.2,343.4c-0.2,0.8-0.5,1.6-0.7,2.4c-0.1,0.4,1.1,0.2,1.2-0.2c0.3-0.9,0.7-1.8,1-2.7
					c0.2-0.5-1-0.1-1.1,0c-0.7,0.5-1.4,1-2.1,1.4c0.4,0,0.7,0.1,1.1,0.1c0.2-0.4,0.6-0.7,1-0.9c0.2-0.1,0.6-0.2,0.5-0.5
					c-0.1-0.2-0.5-0.2-0.7-0.1c-0.8,0.3-1.5,0.7-2,1.5c-0.1,0.2,0.1,0.3,0.3,0.3c0.3,0,0.6-0.1,0.8-0.2c0.7-0.5,1.4-1,2.1-1.4
					c-0.4,0-0.7,0-1.1,0c-0.3,0.9-0.7,1.8-1,2.7c0.4-0.1,0.8-0.1,1.2-0.2c0.2-0.8,0.5-1.6,0.7-2.4
					C216.6,342.8,215.3,343,215.2,343.4L215.2,343.4z"/>
			</g>
		</g>
		<g>
			<g>
				<path class="st18" d="M215.8,341.6c-0.5,1-1.3,1.7-2.3,2.2c0.3,0.1,0.6,0.2,0.8,0.3c0.5-0.8,1.9-0.6,1.9-1.8
					c0-0.5-0.8-0.3-1-0.2c-1,0.7-2,1.5-3,2.2c-0.6,0.5,0.2,0.7,0.7,0.5c1.1-0.4,2.1-1.1,2.8-2c0.4-0.5-0.4-0.6-0.8-0.4
					c-1,0.5-2,1-3,1.4c-0.8,0.4-0.1,0.8,0.5,0.6c0.4-0.2,0.9-0.3,1.3-0.3c-0.1-0.2-0.2-0.4-0.3-0.6c-0.7,0.6-1.5,1.1-2.3,1.6
					c-0.7,0.5,0.4,0.7,0.8,0.4c0.8-0.5,1.5-1.1,2.3-1.6c0.4-0.3,0.2-0.7-0.3-0.6c-0.7,0.1-1.3,0.3-2,0.5c0.2,0.2,0.3,0.4,0.5,0.6
					c1-0.5,2-1,3-1.4c-0.3-0.1-0.5-0.3-0.8-0.4c-0.6,0.8-1.4,1.3-2.3,1.7c0.2,0.2,0.4,0.3,0.7,0.5c1-0.7,2-1.5,3-2.2
					c-0.3-0.1-0.7-0.1-1-0.2c0,0.6-1.5,1.1-1.8,1.6c-0.3,0.5,0.6,0.4,0.8,0.3c1.3-0.6,2.3-1.5,2.9-2.8
					C217.3,341.1,216,341.1,215.8,341.6L215.8,341.6z"/>
			</g>
		</g>
		<g>
			<g>
				<path class="st18" d="M205.1,347c-0.3,0.1-0.7,0.2-1,0.3c-0.6,0.2-0.7,1,0.1,0.9c1.2-0.1,3.7-0.2,4-1.7c0.1-0.3-0.4-0.4-0.6-0.4
					c-0.8,0.1-1.2,0.8-1.9,0.8c-0.6-0.1-1.3,0.8-0.4,0.9c0.4,0,0.9,0,1.3-0.1c0.2-0.1,0.3-0.1,0.5-0.2c0.1,0,0.4-0.4,0.5-0.4
					c-0.2-0.1-0.4-0.3-0.6-0.4c-0.1,0.4-0.7,0.4-1.1,0.5c-0.5,0.1-1,0.2-1.5,0.2c0,0.3,0,0.6,0.1,0.9c0.3-0.1,0.7-0.2,1-0.3
					C206,347.6,205.8,346.7,205.1,347L205.1,347z"/>
			</g>
		</g>
		<g>
			<g>
				<path class="st18" d="M207.1,343.1c0,0.6,0,1.2,0.2,1.8c0.1,0.4,1.4,0,1.2-0.3c-0.2-0.5-0.2-1.1-0.2-1.6
					C208.4,342.4,207.1,342.7,207.1,343.1L207.1,343.1z"/>
			</g>
		</g>
		<g>
			<g>
				<path class="st18" d="M211.3,344.5c-0.3-0.4-0.4-0.8-0.5-1.3c-0.1-0.6-1.3-0.3-1.2,0.3c0.1,0.5,0.3,1,0.6,1.5
					C210.5,345.5,211.7,345,211.3,344.5L211.3,344.5z"/>
			</g>
		</g>
		<g>
			<g>
				<path class="st18" d="M214.5,342.5c-0.2,0.2-0.4,0.3-0.7,0.5c-0.2,0.2-0.1,0.4,0.1,0.5c0.3,0.1,0.6-0.1,0.9-0.2
					c0.2-0.2,0.4-0.3,0.7-0.5c0.2-0.2,0.1-0.4-0.1-0.5C215.1,342.2,214.8,342.4,214.5,342.5L214.5,342.5z"/>
			</g>
		</g>
		<g>
			<g>
				<path class="st18" d="M203.4,348.4c0.7,0,0.9-0.9,0.1-0.9C202.8,347.4,202.5,348.4,203.4,348.4L203.4,348.4z"/>
			</g>
		</g>
		<g>
			<g>
				<g>
					<path class="st18" d="M207.5,346.2c-1.4,2.2-0.1,5.1,2.4,5.8c1.1,0.3,2.4,0.1,3.4-0.5c0.4-0.3,0.8-0.6,1.2-0.9
						c0.4-0.4,1.1-0.7,0-0.3c-1.4-1-2.7-2.1-4.1-3.1c0.1,1,0.3,2,0.6,3c0.2,0.5,0.4,1,0.6,1.5c0.1,0.2,0.5,1.2,0.4,0.7
						c0-0.6,0-1.1,0-1.7c0,0.1-0.1,0.2-0.1,0.2c0.3-0.5,0.6-0.9,0.8-1.4c0.7-0.6-1,0.5-1,0.2c0,0.2,1.3,0.4,1.3,0.9
						c0-0.1-0.2-0.4-0.3-0.5c-0.9-1.5-2.1-2.3-3.9-2.5c0.5,2,1.1,4,1.6,6c0.5-0.3,1-0.6,1.5-1c1.5-0.9,2.1-2.8,1.2-4.4
						c-0.8-1.4-2.9-2.1-4.4-1.2c-0.5,0.3-1,0.6-1.5,1c-1.2,0.8-1.9,2.2-1.5,3.6c0.4,1.5,1.7,2.2,3.1,2.4c-1.6-0.2-2.3-1.7-1.6-0.6
						c0.1,0.2,0.2,0.4,0.3,0.5c0.5,0.7,1,1.3,1.8,1.7c1.7,0.9,4,0.5,5.7-0.2c2-0.8,3.6-2.4,3.1-4.7c-0.3-1.3-1.3-2.4-1.4-3.5
						c-0.2-1.8-1.9-3.9-4.1-3.1c-0.8,0.3-1.5,0.6-2.1,1.2c-0.2,0.2-0.3,0.3-0.5,0.5c-1.1,1.2,0.9-1.1,2.3,0.5
						c0.3,0.5,0.6,0.9,0.8,1.4c0,0.1,0,0.2,0,0.4c-0.1,0.5-0.3,1.1-0.4,1.6c0-0.1,0.1-0.1,0.1-0.2
						C215.2,345.9,209.6,342.7,207.5,346.2L207.5,346.2z"/>
				</g>
			</g>
			<g>
				<g>
					<path class="st18" d="M205.7,346.8c-0.5,0.5-0.9,0.8-1.6,0.9c0.3,0.7,0.5,1.3,0.8,2c1.2-0.6,2.4-1.1,3.7-1.7
						c-0.5-0.5-1-1-1.5-1.5c-0.2,0.3-0.9,0.4-1.3,0.6c-0.5,0.2-0.9,0.6-1.2,1.1c-0.5,1.2,0.3,2.3,1.4,2.7c1.1,0.3,1.7-1,1-1.8
						c-0.5-0.6-1.1-0.9-1.9-0.8c-0.8,0-1.3,0.9-0.9,1.6c0.3,0.5,0.6,0.9,1.1,1.3c0.2,0.2,1.3,1.1,1.1,1.1c0.3,0.6,0.7,1.2,1,1.8
						c0.8-0.7,1.1-2.3,0-2.8c-0.5-0.2-1.1-0.2-1.5,0.4c0,0,0,0.1-0.1,0.1c-0.3,0.5-0.1,1.1,0.4,1.5c0,0,0.1,0,0.1,0.1
						c1.1,0.8,2.2-1.1,1.1-1.8c0,0-0.1,0-0.1-0.1c0.1,0.5,0.3,1,0.4,1.5c0,0,0-0.1,0.1-0.1c-0.5,0.1-1,0.3-1.5,0.4
						c-0.1-0.2-0.3-0.4-0.4-0.6c-0.9,0.7,0.1,2,1,1.8c1.1-0.3,1.8-1.4,1.6-2.5c-0.3-1.5-1.8-1.9-2.4-3.1c-0.3,0.5-0.6,1.1-0.9,1.6
						c0.1,0.1,0.3,0.1,0.4,0.2c0.3-0.6,0.7-1.2,1-1.8c0,0.3,0,0.3,0.2,0.2c0.1,0,0.2-0.1,0.4-0.1c0.2-0.1,0.5-0.2,0.7-0.3
						c0.5-0.2,0.8-0.5,1-1c0.5-1-0.5-1.9-1.5-1.5c-1.2,0.6-2.4,1.1-3.7,1.7c-1.1,0.5-0.3,2.2,0.8,2c1-0.3,1.8-0.7,2.5-1.5
						C208.2,347.3,206.7,345.8,205.7,346.8L205.7,346.8z"/>
				</g>
			</g>
			<g>
				<g>
					<path class="st18" d="M214.3,348.3c1,0.9,2.8,2.3,4,1c0.9-1,0.4-2.7-0.9-3c-1-0.3-2.1,1.3-0.9,1.7c0.5,0.2,0.9,0.3,1.4,0.5
						c0.2,0.1,0.4,0.1,0.7,0.2c0.1,0,0.2,0.1,0.3,0.1c0.2,0.1,0.2,0.1,0-0.1c-0.7,0.6-1.3,1-1.7,1.9c0.7,0,1.4,0,2,0
						c-0.1-1.2,1.1-2.8-0.2-3.8c-0.2-0.2-0.5-0.3-0.8-0.3c-0.5,0,0.1,0.3-0.1-0.1c-0.2-0.5-0.9-0.7-1.4-0.8c-0.8,0-1.6,1-0.9,1.6
						c0.5,0.4,1,0.7,1.6,0.9c1,0.3,2.1-1.3,0.9-1.7c-0.5-0.2-1-0.5-1.5-0.8c-1-0.7-2.3,0.9-1.2,1.6c0.5,0.3,1,0.6,1.5,0.8
						c0.3-0.6,0.6-1.1,0.9-1.7c-0.3-0.1-0.5-0.2-0.7-0.4c-0.3,0.5-0.6,1.1-0.9,1.6c-0.5,0,0.2,0.5,0.4,0.6c0.2,0.1,0.3,0.1,0.5,0.2
						c0.1,0,0.2,0,0.3,0c0.2,0,0.2,0-0.2-0.1c-0.2,0.3-0.2,1-0.3,1.4c-0.1,0.5-0.1,0.9-0.1,1.5c0.1,1.1,1.7,0.7,2,0
						c0.5-1.1,2.3-1.5,1.8-3c-0.4-1.2-2.4-1.4-3.4-1.8c-0.3,0.6-0.6,1.1-0.9,1.7c-0.2-0.1-0.2,0-0.1,0.2c0.9-0.1,1-0.2,0.5-0.4
						c-0.2-0.3-0.8-0.6-1.2-0.9C215.1,346.1,213.4,347.4,214.3,348.3L214.3,348.3z"/>
				</g>
			</g>
			<g>
				<g>
					<path class="st18" d="M216.8,350.7c0.1,1.3,0.4,2.6,0.9,3.8c0.2,0.5,0.2,0.4-0.3,0.3c-0.3-0.1-0.5-0.1-0.8-0.1
						c-0.6-0.1-1.1-0.1-1.6,0c0.7,0.2,1.3,0.4,2,0.6c0.4-0.1,0.8-0.1,1.3-0.2c0.2,0-0.6-0.3-0.7-0.3c-0.4-0.1-0.9-0.3-1.3-0.2
						c-0.2,0-0.4,0.1-0.6,0.2c0.6,0.2,1.3,0.3,1.9,0.5c-0.5-0.4,1.1-0.6,1.2-0.6c-0.7-0.2-1.3-0.4-2-0.6c-0.9,0.4-1.7,0.7-2.6,1.1
						c-0.1,0-0.1,0,0,0.1c0.7,0.5,1.7,0.7,2.5,0.7c1.1,0.1,2.4,0.1,3.4-0.1c0.2,0-0.6-0.3-0.7-0.3c-0.4-0.1-0.9-0.3-1.3-0.2
						c-0.9,0.2-1.9,0-2.8,0.1c-0.4,0-0.2,0,0.5,0.1c0.3,0.2,0.6,0.2,0.8,0c0.2-0.1,0.4-0.2,0.6-0.3c0.5-0.2,1-0.4,1.4-0.6
						c0.2-0.1-0.6-0.3-0.7-0.3c-0.4-0.1-0.9-0.3-1.3-0.2c-0.4,0.1-2.1,0.3-1,0.8c0.9,0.4,1.6,0.4,2.5,0.2c-0.7-0.2-1.3-0.4-2-0.6
						c-0.4,0.1-0.8,0.1-1.3,0.2c-0.2,0,0.6,0.3,0.7,0.3c0.4,0.1,0.9,0.3,1.3,0.2c0.7-0.1,1.1,0,1.8,0.1c0.3,0,0.9,0.2,1-0.2
						c0.1-0.4-0.4-1.3-0.5-1.7c-0.2-0.7-0.3-1.4-0.3-2.2C218.8,350.8,216.8,350.7,216.8,350.7L216.8,350.7z"/>
				</g>
			</g>
			<g>
				<g>
					<path class="st18" d="M212.3,355.4c-0.1,0.3-0.3,0.9-0.7,0.7c0.4,0.4,0.9,0.7,1.3,1.1c0,0,0-0.6,0-0.7
						c-0.1-0.2-0.4-0.4-0.5-0.6c-0.1-0.1-1-0.9-1.1-0.8c-0.6,0.6-1.5-0.3-2.2-0.4c-0.1,0-0.1,0-0.1,0.1c0,0.3,0.2,0.6,0.4,0.8
						c0.5,0.5,0.9,0.9,1.2,1.6c0.1,0.2,1.6,1.5,1.6,1.3c0.1-0.6,0.1-1-0.1-1.5c-0.4-0.3-0.9-0.6-1.3-0.9c0.3,0.3,0.9,1.7,0.3,1.8
						c0.5,0.5,1.1,0.9,1.6,1.4c0.9-1.3,1.8-2.5,2.9-3.6c0.2-0.2-1.4-1.6-1.6-1.4c-1.1,1.1-2,2.3-2.9,3.6c-0.2,0.3,1.3,1.5,1.6,1.4
						c0.9-0.3-0.6-2.4-0.9-2.8c-0.3-0.3-0.6-0.6-0.9-0.8c0,0-0.5-0.3-0.4-0.1c0.2,0.5,0.2,0.9,0.1,1.4c0.5,0.4,1.1,0.9,1.6,1.3
						c-0.2-0.4-0.4-0.7-0.6-1.1c-0.3-0.4-0.8-0.8-1.1-1.2c-0.2-0.2-0.1-0.2,0.2,0.1c0.2,0.1,0.4,0.2,0.6,0.3
						c0.1,0.1,0.3,0.2,0.4,0.2c0.4,0.1,0.7,0.1,1-0.2c-0.4-0.3-0.8-0.5-1.1-0.8c0,0,0.1,0.1,0.1,0.1c-0.2-0.2-0.3-0.4-0.5-0.6
						c0,0.4,0,0.6,0.2,0.9c0.2,0.4,0.6,0.7,1,0.9c0.7,0.5,1.3,0.5,1.5-0.4C214,356.3,212.3,355.4,212.3,355.4L212.3,355.4z"/>
				</g>
			</g>
			<g>
				<g>
					<path class="st18" d="M221.2,347.9c-0.3,0.1-0.7,0.1-1,0.2c-0.4,0.1-0.8,0.6-0.2,0.7c0.1,0,0.2,0,0.4,0
						c-0.1-0.1-0.3-0.2-0.4-0.3c0,0.1-0.1,0.2-0.1,0.3c0.4,0,0.8,0,1.2,0c0.2-0.3,0.3-0.7,0.2-1.1c-0.1-0.4-1.3-0.1-1.2,0.3
						c0.1,0.3,0.2,0.7,0.2,1c0.1,0.4,1.2,0.1,1.2-0.2c0-0.2,0.1-0.4,0.1-0.6c0.1-0.5-1.2-0.3-1.2,0.2c0,0.2-0.1,0.4-0.1,0.6
						c0.4-0.1,0.8-0.2,1.2-0.2c-0.1-0.3-0.2-0.7-0.2-1c-0.4,0.1-0.8,0.2-1.2,0.3c0.1,0.3,0,0.5-0.1,0.8c-0.2,0.2,0.1,0.4,0.3,0.4
						c0.3,0,0.6-0.1,0.8-0.3c0.1-0.1,0.2-0.3,0.2-0.5c0-0.2-0.2-0.3-0.4-0.3c-0.1,0-0.2,0-0.4,0c-0.1,0.2-0.1,0.4-0.2,0.7
						c0.3-0.1,0.7-0.1,1-0.2c0.2,0,0.6-0.2,0.5-0.5C221.8,347.8,221.4,347.9,221.2,347.9L221.2,347.9z"/>
				</g>
			</g>
			<g>
				<g>
					<path class="st18" d="M221.2,347.6c-0.1,0-0.2,0-0.3,0c-0.7,0-1,0.9-0.1,0.9c0.1,0,0.2,0,0.3,0
						C221.8,348.5,222.1,347.6,221.2,347.6L221.2,347.6z"/>
				</g>
			</g>
			<g>
				<g>
					<path class="st18" d="M207.2,342.2c0.3,0.6,0.4,1,0.5,1.7c0.4-0.1,0.8-0.3,1.2-0.4c-0.1-0.2-0.2-0.3-0.3-0.5
						c-0.2-0.3-1.2-0.1-1.2,0.3c0,1.1,0,2.2,0.1,3.3c0,0.5,1.2,0.1,1.2-0.2c0.1-0.5,0.2-1.1,0.5-1.5c0.4-0.7,0.3-0.1,0.6,0.5
						c0.4,1,1,2,1.5,3c0.4,0.9,0.3,2.7,1.5,2.9c0.4,0.1,1.5-0.6,0.7-0.7c-0.5-0.1-0.6-1.5-0.8-1.9c-0.3-0.8-0.7-1.6-1.1-2.4
						c-0.3-0.7-0.8-2.6-1.6-2.9c-1.6-0.6-2.4,2.1-2.6,3.1c0.4-0.1,0.8-0.2,1.2-0.2c-0.1-1-0.1-2-0.1-3.1c-0.4,0.1-0.8,0.2-1.2,0.3
						c0.1,0.2,0.2,0.3,0.3,0.5c0.2,0.4,1.2,0,1.2-0.4c-0.1-0.7-0.2-1.1-0.5-1.7C208.2,341.5,207,341.9,207.2,342.2L207.2,342.2z"/>
				</g>
			</g>
			<g>
				<g>
					<path class="st18" d="M220.4,355.5c-0.3-0.5-0.6-1-0.8-1.4c-0.2-0.4-1.4,0-1.1,0.5c0.3,0.5,0.6,1,0.8,1.4
						C219.4,356.4,220.6,356,220.4,355.5L220.4,355.5z"/>
				</g>
			</g>
			<g>
				<g>
					<path class="st18" d="M205.2,351.5c0.5,1.1,0.8,2.3-0.2,3.2c0.4,0,0.8-0.1,1.2-0.1c0.2-0.5,0.4-1,0.6-1.6
						c0.1-0.3-1.1-0.1-1.2,0.2c-0.3,0.9-0.6,1.7-0.9,2.6c0,0.1,0.1,0.2,0.2,0.2c0.8,0,1.7,0.1,2.5,0c0.6,0,1.3,0,1.9-0.3
						c1.3-0.6-0.6-1.6-1.3-1.7c-0.4,0-2.6,0.5-1.7,1.2c0.7,0.5,2,0,2.4-0.7c0.1-0.3-0.6-0.1-0.7-0.1c-1,0.3-2,0.6-3,0.8
						c-0.7,0.2-0.6,0.6,0.1,0.4c1-0.3,2-0.6,3-0.8c-0.2,0-0.4-0.1-0.7-0.1c-0.1-0.2,0-0.2,0.4,0.1c0.1,0.1,0.3,0.2,0.4,0.3
						c0.4,0.3,0.7,0.2,0,0.3c-0.8,0.1-1.7,0.1-2.5,0c0.1,0.1,0.1,0.1,0.2,0.2c0.3-0.9,0.6-1.7,0.9-2.6c-0.4,0.1-0.8,0.1-1.2,0.2
						c-0.2,0.5-0.4,1-0.6,1.6c-0.1,0.4,1.1,0,1.2-0.1c1.1-0.9,0.8-2.3,0.3-3.4C206.3,350.9,205.1,351.3,205.2,351.5L205.2,351.5z"/>
				</g>
			</g>
			<g>
				<g>
					<path class="st18" d="M203.7,349.5c0.2,0.5,0.5,0.7,1,0.8c0.3,0.1,0.7-0.1,0.9-0.2c0.2-0.2,0.2-0.3-0.1-0.4
						c-0.3-0.1-0.5-0.3-0.5-0.5C204.8,348.8,203.6,349.2,203.7,349.5L203.7,349.5z"/>
				</g>
			</g>
			<g>
				<g>
					<path class="st18" d="M206.4,353c0.1-0.2,0.2-0.3,0.2-0.5c-0.4,0.1-0.8,0.1-1.2,0.2c0,0.1-0.1,0.2-0.1,0.3
						c-0.1,0.2,1.1,0.1,1.2-0.2c0-0.1,0.1-0.2,0.1-0.3c0.1-0.2-1.1-0.1-1.2,0.2c-0.1,0.2-0.2,0.3-0.2,0.5c-0.1,0.2,0.4,0.2,0.5,0.1
						C205.8,353.4,206.2,353.3,206.4,353L206.4,353z"/>
				</g>
			</g>
			<g>
				<g>
					<path class="st18" d="M205.7,347.4c-0.7,0.2-1.4,0.5-2.1,0.6c0.2,0,0.3,0,0.5,0c0,0-0.1,0-0.1,0c-0.4,0.1-0.8,0.2-1.1,0.3
						c0,0,0,0,0.1,0c0.2,0.1,0.6,0,0.8-0.1c0,0,0.6-0.3,0.4-0.3c0,0,0,0-0.1,0c-0.3-0.1-0.9,0-1.1,0.3c-0.1,0.1-0.1,0.1-0.1,0.2
						c0,0,0,0,0,0c0.4,0.2,0.8,0,1.2-0.1c0.6-0.2,1.2-0.3,1.7-0.5c0.1,0,0.6-0.2,0.6-0.3C206.3,347.3,205.7,347.4,205.7,347.4
						L205.7,347.4z"/>
				</g>
			</g>
			<g>
				<g>
					<path class="st18" d="M205.2,347.8c-0.3-0.1-0.6-0.1-0.9-0.1c-0.2,0-0.6,0.3-0.7,0c-0.4,0.2-0.7,0.4-1.1,0.5
						c0.3,0.2,0.4,0.4,0.4,0.8c0,0.4,1.3,0.1,1.2-0.3c0-0.5-0.3-0.8-0.7-1c-0.3-0.2-1.4,0.1-1.1,0.5c0.2,0.3,0.5,0.3,0.8,0.3
						c0.2,0,0.4,0,0.6-0.1c0.1,0,0.3-0.1,0.4-0.1c0.3,0.1,0.6,0,0.9-0.1C205.3,348.2,205.5,347.9,205.2,347.8L205.2,347.8z"/>
				</g>
			</g>
			<polygon class="st31" points="205.7,338.2 205.3,344.6 198.6,347.3 203.4,352.2 201.6,358.2 208.5,357.8 212.2,362.8 216,357.8 
				222.8,357.8 220.7,352 225.2,347.3 218.9,344.3 218.1,337.9 212.2,341.7 			"/>
			<polygon class="st31" points="207.4,341.3 207.1,346 201.9,348.1 205.6,351.7 204.3,356.2 209.5,355.9 212.3,359.6 215.2,355.9 
				220.4,355.9 218.8,351.6 222.2,348.1 217.4,345.8 216.8,341.1 212.3,343.9 			"/>
		</g>
	</g>
	<g>
		<g>
			<path class="st18" d="M347.8,384.4c-1.5,0.8-3,1.8-4.3,2.9c-0.6,0.4-0.7,0.6-0.4,0.4c0.4-0.2,0.2-0.2-0.5-0.1
				c-0.7-0.1-1.6,0.1-2.3-0.1c0.7,0.6,1.5,1.1,2.2,1.7c-0.1-0.1-0.2-0.3-0.2-0.4c0.2,0.6,0.3,1.2,0.5,1.9c-0.1-0.9-0.2-0.5-0.1-0.6
				c4-2.5,0.3-8.9-3.7-6.4c-1.9,1.2-3.3,3-3.6,5.3c-0.3,2.5,0.7,5.1,3.3,5.7c1.9,0.5,4.9,0.5,6.8,0c1.2-0.3,2-1.3,3-2
				c0.9-0.7,1.9-1.3,3-1.9C355.7,388.5,352,382.1,347.8,384.4L347.8,384.4z"/>
		</g>
	</g>
	<g>
		<g>
			<path class="st18" d="M337.3,389.7c4.8,0,4.8-7.4,0-7.4C332.6,382.3,332.6,389.7,337.3,389.7L337.3,389.7z"/>
		</g>
	</g>
	<g>
		<g>
			<path class="st18" d="M336.2,387.4c0.1,0,0.2-0.1,0.2-0.1c0.8-0.4,1.5-1.4,1.7-2.2c0.2-0.9,0.1-2.1-0.4-2.8
				c-1.1-1.8-3.2-2.3-5.1-1.3c-0.1,0-0.2,0.1-0.2,0.1c-0.8,0.4-1.5,1.4-1.7,2.2c-0.2,0.9-0.1,2.1,0.4,2.8
				C332.3,387.9,334.4,388.4,336.2,387.4L336.2,387.4z"/>
		</g>
	</g>
	<g>
		<g>
			<path class="st18" d="M336.3,387c4.8,0,4.8-7.4,0-7.4C331.6,379.6,331.6,387,336.3,387L336.3,387z"/>
		</g>
	</g>
	<g>
		<g>
			<path class="st18" d="M333.4,377c-2.9,0.5-5.2,2.7-5.6,5.6c2.4,0,4.8,0,7.1,0c0.2,1,9.5,0.8,4.9,2.6c-1.5,0.6-3.4-0.1-5-0.3
				c-1.9-0.2-3.3,0.2-4.9,1c1.7,0.4,3.4,0.9,5.1,1.3c-0.5-0.7-0.9-1.4-1.2-2.2c-1.5-3.2-7.3-1.7-6.9,1.9c0.5,4.2,1.4,10.2,5.9,12.1
				c4.3,1.8,7.8-3.7,3.7-6.4c-1.2-0.8-2.1-1-3.5-1.1c-2.6-0.3-4.8,3.4-3.2,5.6c2,2.7,4.3,3,7.6,3.2c3.9,0.2,7.8,0.2,11.7-0.1
				c4.7-0.3,4.8-7.7,0-7.4c-2.3,0.1-4.6,0.2-6.9,0.2c-0.9,0-1.8,0-2.8-0.1c0.2,0-3.8-0.3-3.3,0.4c-1.1,1.9-2.1,3.7-3.2,5.6
				c-0.1,0-0.1,0.1-0.2,0.1c1.2-2.1,2.5-4.3,3.7-6.4c-1.7-0.7-2.1-4.1-2.3-5.7c-2.3,0.6-4.6,1.2-6.9,1.9c0.3,0.8,0.7,1.5,1.2,2.2
				c1.2,1.7,3.2,2.3,5.1,1.3c1.1-0.6,5,0.5,6.4,0.3c2.2-0.3,4.3-1.1,5.9-2.6c3-2.9,3.6-7.7,0.8-10.9c-2.6-3-8.8-3.6-12.6-3.1
				c-4.5,0.6-7.4,4.1-6.5,8.7c0.7,3.4,6.6,3.6,7.1,0c0.1-0.2,0.3-0.3,0.4-0.5C340,383.4,338,376.3,333.4,377L333.4,377z"/>
		</g>
	</g>
	<g>
		<g>
			<path class="st18" d="M346.6,383.3c-0.4-0.1-0.8-0.2-1.2-0.3c1.2-2.1,2.4-4.1,3.6-6.2c-1.5-0.3-3.1-0.5-4.6-0.8
				c0,2.4,0,4.8,0,7.1c0.5-0.1,2.3,0.1,1.9-0.6c2.1,3.4,8.4,1.2,6.8-2.8c0-0.2-0.1-0.4-0.1-0.6c-2.1,0.9-4.2,1.7-6.3,2.6
				c0.6,0.8,1,1.8,1,2.7c0.4,4.1,5.9,5.1,7.3,1c0.4-1.1,0.5-1.9,0.5-3.1c-2.5,0-4.9,0-7.4,0c0.3,4.7,0.3,9.4,0.1,14.1
				c-0.3,4.8,7.1,4.7,7.4,0c0.3-4.7,0.2-9.4-0.1-14.1c-0.3-4.7-7.4-4.8-7.4,0c-0.1,0.4-0.1,0.8-0.2,1.1c2.4,0.3,4.8,0.7,7.3,1
				c-0.3-3.1-1.3-5.5-3.2-8c-2.1-2.7-6.2-0.3-6.3,2.6c0,1,0.1,1.6,0.4,2.5c2.3-0.9,4.5-1.9,6.8-2.8c-2.1-3.5-6.6-3.7-10.2-2.8
				c-3.4,0.8-3.6,6.5,0,7.1c1.5,0.3,3.1,0.5,4.6,0.8c3.8,0.6,5.9-3.2,3.6-6.2c-1.4-1.8-3.9-2.4-6-1.6
				C340.3,377.9,342.2,385.1,346.6,383.3L346.6,383.3z"/>
		</g>
	</g>
	<line class="st32" x1="420.1" y1="385.6" x2="387.2" y2="371.5"/>
	<line class="st32" x1="417.9" y1="379" x2="400.8" y2="371.6"/>
	<line class="st32" x1="418.8" y1="381.7" x2="387.6" y2="395.7"/>
	<line class="st32" x1="417.2" y1="377" x2="386.9" y2="390.6"/>
	<line class="st32" x1="415.8" y1="372.7" x2="386.3" y2="386"/>
	<line class="st32" x1="407.7" y1="371.5" x2="385.7" y2="381.4"/>
	<line class="st32" x1="395.8" y1="371.5" x2="385.1" y2="376.3"/>
	<g>
		<path class="st32" d="M384.5,371.5h30.9l9.1,27.6l42.1,76.8c0,0,3.9,5.7-2.3,6h-48.6c0,0-16.6,4.2-18.6-10.4L384.5,371.5z"/>
		<line class="st32" x1="440.8" y1="428.8" x2="388.9" y2="406.5"/>
		<line class="st32" x1="436.7" y1="421.3" x2="388.2" y2="400.7"/>
		<line class="st32" x1="432.6" y1="413.9" x2="387.4" y2="394.4"/>
		<line class="st32" x1="428.6" y1="406.4" x2="386.6" y2="388.4"/>
		<line class="st32" x1="424.5" y1="399" x2="385.7" y2="381.4"/>
		<line class="st32" x1="422.3" y1="392.3" x2="385.1" y2="376.3"/>
		<line class="st32" x1="444.9" y1="436.3" x2="389.7" y2="412.5"/>
		<line class="st32" x1="449" y1="443.8" x2="390.2" y2="418.5"/>
		<line class="st32" x1="453.1" y1="451.2" x2="391.2" y2="424.6"/>
		<line class="st32" x1="457" y1="458.6" x2="392" y2="430.7"/>
		<line class="st32" x1="461.3" y1="466.2" x2="392.8" y2="436.7"/>
		<line class="st32" x1="465.7" y1="473.9" x2="393.5" y2="442.8"/>
		<line class="st32" x1="467.7" y1="480.2" x2="394.3" y2="448.9"/>
		<line class="st32" x1="457.8" y1="481.9" x2="395.1" y2="454.8"/>
		<line class="st32" x1="444.6" y1="481.9" x2="395.9" y2="460.9"/>
		<line class="st32" x1="432.5" y1="481.9" x2="396.6" y2="466.9"/>
		<line class="st32" x1="418.5" y1="481.9" x2="397.4" y2="472.8"/>
		<line class="st32" x1="437.9" y1="423.5" x2="393.6" y2="443.4"/>
		<line class="st32" x1="435.4" y1="418.9" x2="392.9" y2="438"/>
		<line class="st32" x1="432.7" y1="414.4" x2="392.2" y2="432.6"/>
		<line class="st32" x1="430.1" y1="409.8" x2="391.6" y2="427.1"/>
		<line class="st32" x1="427.8" y1="405.1" x2="390.6" y2="421.8"/>
		<line class="st32" x1="425.3" y1="400.5" x2="390.2" y2="416.2"/>
		<line class="st32" x1="423.4" y1="395.6" x2="389.5" y2="410.8"/>
		<line class="st32" x1="421.7" y1="390.6" x2="388.8" y2="405.3"/>
		<line class="st32" x1="420.3" y1="386.3" x2="388.2" y2="400.7"/>
		<line class="st32" x1="440.5" y1="428.2" x2="394.3" y2="448.9"/>
		<line class="st32" x1="443" y1="432.8" x2="395" y2="454.3"/>
		<line class="st32" x1="445.5" y1="437.4" x2="396" y2="459.6"/>
		<line class="st32" x1="447.8" y1="442.1" x2="396.4" y2="465.2"/>
		<line class="st32" x1="450.6" y1="446.6" x2="397.1" y2="470.6"/>
		<line class="st32" x1="453.1" y1="451.2" x2="398.4" y2="475.8"/>
		<line class="st32" x1="455.7" y1="455.9" x2="401.9" y2="480"/>
		<line class="st32" x1="457.8" y1="460.6" x2="409.2" y2="482.5"/>
		<line class="st32" x1="460.8" y1="465.1" x2="423.4" y2="481.9"/>
		<line class="st32" x1="463.2" y1="469.7" x2="436.2" y2="481.9"/>
		<line class="st32" x1="465.7" y1="473.9" x2="448.1" y2="481.9"/>
		<line class="st32" x1="467.7" y1="478.4" x2="459.9" y2="481.9"/>
	</g>
</g>
</svg>
