<?xml version="1.0" encoding="utf-8"?>
<!-- Generator: Adobe Illustrator 21.1.0, SVG Export Plug-In . SVG Version: 6.00 Build 0)  -->
<svg version="1.1" id="Layer_1" xmlns="http://www.w3.org/2000/svg" xmlns:xlink="http://www.w3.org/1999/xlink" x="0px" y="0px"
	 viewBox="0 0 612 792" style="enable-background:new 0 0 612 792;" xml:space="preserve">
<style type="text/css">
	.st0{stroke:#FFFFFF;stroke-width:1.4719;stroke-miterlimit:10;}
	.st1{stroke:#000000;stroke-width:1.2727;stroke-miterlimit:10;}
	.st2{stroke:#FFFFFF;stroke-width:0.1227;stroke-miterlimit:10;}
	.st3{stroke:#000000;stroke-width:0.7983;stroke-miterlimit:10;}
	.st4{stroke:#FFFFFF;stroke-width:1.4366;stroke-miterlimit:10;}
	.st5{fill:none;stroke:#FFFFFF;stroke-width:1.4719;stroke-miterlimit:10;}
	.st6{fill:#EC008C;stroke:#EC008C;stroke-width:0.4979;stroke-miterlimit:10;}
	.st7{stroke:#000000;stroke-width:0.4979;stroke-miterlimit:10;}
	.st8{fill:none;stroke:#000000;stroke-width:0.4979;stroke-miterlimit:10;}
	.st9{fill:none;stroke:#FFFFFF;stroke-width:0.9957;stroke-miterlimit:10;}
	.st10{fill:none;stroke:#FFFFFF;stroke-width:0.9999;stroke-miterlimit:10;}
	.st11{fill:none;stroke:#FFFFFF;stroke-width:1.4936;stroke-miterlimit:10;}
	.st12{fill:none;stroke:#FFFFFF;stroke-width:1.5626;stroke-miterlimit:10;}
	.st13{fill:none;stroke:#FFFFFF;stroke-width:1.5528;stroke-miterlimit:10;}
	.st14{fill:none;stroke:#FFFFFF;stroke-width:1.3419;stroke-miterlimit:10;}
	.st15{fill:none;stroke:#FFFFFF;stroke-width:1.6999;stroke-miterlimit:10;}
	.st16{fill:none;stroke:#FFFFFF;stroke-width:1.8069;stroke-miterlimit:10;}
	.st17{stroke:#FFFFFF;stroke-width:1.6342;stroke-miterlimit:10;}
	.st18{fill:#FFFFFF;}
	.st19{fill:#FFFFFF;stroke:#FFFFFF;stroke-width:1.4936;stroke-miterlimit:10;}
	.st20{fill:#FFFFFF;stroke:#FFFFFF;stroke-width:0.3757;stroke-miterlimit:10;}
	.st21{fill:#FFFFFF;stroke:#FFFFFF;stroke-width:0.3354;stroke-miterlimit:10;}
	.st22{fill:#FFFFFF;stroke:#FFFFFF;stroke-width:0.2708;stroke-miterlimit:10;}
	.st23{fill:#FFFFFF;stroke:#FFFFFF;stroke-width:0.2061;stroke-miterlimit:10;}
	.st24{fill:none;stroke:#FFFFFF;stroke-width:0.4979;stroke-miterlimit:10;}
	.st25{fill:none;stroke:#FFFFFF;stroke-width:0.3647;stroke-miterlimit:10;}
	.st26{stroke:#FFFFFF;stroke-width:1.4781;stroke-miterlimit:10;}
	.st27{fill:none;stroke:#FFFFFF;stroke-width:1.4781;stroke-miterlimit:10;}
	.st28{fill:none;stroke:#FFFFFF;stroke-width:1.4575;stroke-miterlimit:10;}
	.st29{stroke:#FFFFFF;stroke-width:0.4927;stroke-miterlimit:10;}
	.st30{fill:none;stroke:#FFFFFF;stroke-width:0.4927;stroke-miterlimit:10;}
	.st31{fill:none;stroke:#FFFFFF;stroke-width:0.4282;stroke-miterlimit:10;}
	.st32{fill:none;stroke:#FFFFFF;stroke-width:0.6971;stroke-miterlimit:10;}
</style>
<g>
	<polyline class="st0" points="360.8,372.8 368,375.4 371.6,373.3 371.9,370.9 376.3,366.1 379.9,363.7 370.6,358.5 380.5,358 
		380.8,354.6 372.6,352.6 368.3,351.2 361.9,351.1 360.5,349.2 360.2,303.3 	"/>
	<ellipse class="st0" cx="300.2" cy="295.6" rx="59.5" ry="7.7"/>
	<path class="st0" d="M360.7,366.5c0.2,29.6,1.7,59.6,2.8,89.2c0,13,1,26.1-0.5,39.1c-38,11.7-81.1,12.6-119.7,0.4
		c-0.5-0.4-1-1.3-1-2.2c-1-10.9-1-21.3-1.5-32.2c-0.5-37.8,0-76.1-0.1-113.8v-48.9"/>
	<polygon class="st0" points="332.4,421.8 253.3,455.4 261.1,470.7 340.2,437.1 	"/>
	<path class="st0" d="M360.4,349.8c-9.2,3.8-18.7,7.4-28.7,11c-32.2,11.5-62.9,19.5-91.1,25.3"/>
	<path class="st0" d="M240.7,348.1c0,0,61,23.1,100.4,9.4"/>
	<line class="st0" x1="357.4" y1="301.8" x2="276.1" y2="358"/>
	<polygon class="st1" points="357.4,344 357.4,301.8 287.3,351.9 	"/>
	<g>
		<g>
			<path d="M349.5,343.1c-0.2,0.5-1.8,0.9-2.5,1.2c-1.2,0.6-2.2,1.4-3.4,1.9c-2.2,0.9-4.3,1.2-6,3c-2,2.2-0.7,6.5,2.6,6.3
				c0.8-0.1,1.6-0.2,2.4-0.3c-1.2-2.1-2.4-4.1-3.6-6.2c0.2-0.1,0.4-0.1,0.5-0.2c-4.4,1.6-2.6,8.6,2,7.1c2.4-0.8,4.7-1.7,7-2.6
				c-1.7-1.7-3.4-3.4-5-5c-0.1,0.1-0.2,0.3-0.3,0.4c0.7-0.6,1.5-1.1,2.2-1.7c-0.2,0-0.3,0.1-0.5,0.1c1.4,1.8,2.8,3.6,4.2,5.4
				c0,0,0,0,0,0.1c3.5-3.2-1.7-8.4-5.2-5.2c-0.5,0.4-0.8,0.9-1.2,1.4c-1.9,2.7,1.2,6.2,4.2,5.4c1.4-0.4,2.1-1.1,3-2.2
				c0.9-1.3,0.5-3.4-0.6-4.5c-1.2-1.2-2.9-1.2-4.5-0.6c-1.7,0.7-3.5,1.3-5.2,1.9c0.7,2.4,1.3,4.7,2,7.1c1.1-0.4,1.9-0.8,2.7-1.7
				c2.4-2.8,0.1-7-3.6-6.2c-0.2,0-0.3,0.1-0.5,0.1c0.9,2.1,1.7,4.2,2.6,6.3c0.6-0.7,1.6-0.8,2.5-1c1.4-0.5,2.6-1.1,3.9-1.9
				c2.4-1.5,5.2-1.9,6.6-4.7C358,342.6,351.6,338.9,349.5,343.1L349.5,343.1z"/>
		</g>
	</g>
	<g>
		<g>
			<path d="M342.5,342.6c-3.2,1.9-6.5,3.5-10.1,4.7c1.5,1.5,3,3,4.5,4.5c0.7-2.2,1.3-4.3-0.7-6c-1.9-1.7-4.7-1.2-7-0.6
				c-4.6,1-2.7,8.1,2,7.1c1.2,0,1.3-0.3,0.1-1c-0.4-0.9-0.7-1.7-1.1-2.6c-0.2,0.3-0.4,0.7-0.4,1.1c-0.8,2.6,1.9,5.4,4.5,4.5
				c4.1-1.4,8.1-3.2,11.9-5.4C350.3,346.6,346.6,340.2,342.5,342.6L342.5,342.6z"/>
		</g>
	</g>
	<g>
		<g>
			<path d="M349.7,350.9c0.4-0.2,1.3-0.6,1.7-0.4c-0.2-0.1-0.4-0.2-0.5-0.3c0,0,0.1,0.1,0.1,0.1c-0.1-0.2-0.2-0.4-0.3-0.5
				c0,0.1,0,0.1,0,0.2c0-0.2,0-0.4,0-0.7c0,0.1-0.4,0.2-0.6,0.3c-0.3,0.1-0.7,0.3-1,0.5c-0.6,0.4-1.2,0.8-1.8,1.3
				c-0.9,0.8,0,2.4,1.2,2.1c1.2-0.4,2.5-0.8,3.7-1.2c1.5-0.5,0.9-2.9-0.7-2.4c-1.2,0.4-2.5,0.8-3.7,1.2c0.4,0.7,0.8,1.4,1.2,2.1
				c0.6-0.6,1.3-1,2.1-1.3c0.9-0.4,1.7-0.8,1.9-1.9c0.2-1.1-0.6-1.9-1.7-1.9c-1,0-2,0.4-2.9,0.8c-0.6,0.3-0.7,1.2-0.4,1.7
				C348.4,351.1,349.1,351.2,349.7,350.9L349.7,350.9z"/>
		</g>
	</g>
	<polyline class="st2" points="358.1,344.5 358.1,350.1 352.8,352.1 	"/>
	<g>
		<g>
			<path d="M355.3,345.6c0,0.2-0.1,0.4-0.2,0.6c0.8,0.1,1.6,0.2,2.4,0.3c0-0.3,0.2-0.6,0.2-0.8c0.1-0.4,0.1-0.7,0.1-1.1
				c-0.1,0.2-0.1,0.4-0.2,0.6c0,0,0-0.1,0.1-0.1c-0.7,0-1.4,0-2.1,0c0,0,0,0,0,0c-0.1-0.2-0.1-0.4-0.2-0.6c0,0,0,0,0,0.1
				c-0.1,0.7,0.6,1.2,1.2,1.2c0.7,0,1.2-0.6,1.2-1.2c0-0.2-0.1-0.5-0.2-0.7c-0.5-0.7-1.7-0.9-2.1,0c-0.2,0.4-0.2,0.8-0.3,1.3
				c-0.1,0.5-0.2,0.9-0.3,1.4c-0.1,0.6,0.5,1.1,1.1,1.2c0.6,0.1,1.1-0.3,1.3-0.9c0.1-0.2,0.1-0.4,0.2-0.6c0.1-0.7-0.2-1.3-0.9-1.5
				C356.2,344.6,355.4,345,355.3,345.6L355.3,345.6z"/>
		</g>
	</g>
	<g>
		<g>
			<path d="M354,347.8c0,0.2-0.1,0.2-0.2,0.2c0.6,0.5,1.2,0.9,1.8,1.4c0-0.1,0.1-0.2,0.1-0.2c0.6-1-0.7-2.4-1.7-1.7
				c-0.9,0.6-1.8,1.3-2.4,2.3c0.7,0.3,1.5,0.6,2.2,0.9c0.1-0.2,0-0.1-0.2,0.2c-0.2,0.1-0.4,0.1-0.6,0.2c0,0,0.1,0,0.1,0
				c-0.3-0.1-0.6-0.2-0.9-0.4c0,0,0.1,0.1,0.1,0.1c-0.1-0.3-0.2-0.6-0.4-0.9c0,0,0,0.1,0,0.1c0.1-0.2,0.1-0.4,0.2-0.6
				c0.3-0.3,0.2-0.3-0.2-0.2c-0.2,0.1-0.4,0.2-0.5,0.3c-0.3,0.2-0.6,0.4-1,0.6c-0.6,0.3-0.7,1.1-0.4,1.7c0.4,0.6,1.1,0.7,1.7,0.4
				c0.5-0.3,1-0.6,1.5-0.9c0.7-0.3,1.3-0.8,1.2-1.7c-0.1-0.8-0.8-1.3-1.6-1.2c-0.8,0.1-1.1,0.7-1.4,1.4c-0.5,1.3,1.6,2.1,2.2,0.9
				c0.4-0.6,0.9-1,1.5-1.4c-0.6-0.6-1.1-1.1-1.7-1.7c-0.2,0.3-0.3,0.5-0.4,0.8c-0.4,1,0.9,1.9,1.8,1.4c0.9-0.5,1.4-1.3,1.4-2.4
				C356.6,346.2,354.1,346.2,354,347.8L354,347.8z"/>
		</g>
	</g>
	<g>
		<g>
			<path d="M352.5,349.4c-0.5,0.4-1.2,0.4-1.6,1.1c-0.5,0.9,0.4,2.1,1.4,1.8c0.2-0.1,0.3-0.1,0.5-0.2c0.6-0.3,0.8-1.1,0.4-1.7
				c-0.4-0.6-1.1-0.7-1.7-0.4c-0.4,0.2-0.8,0.3-1.2,0.4c-1.5,0.5-0.9,2.9,0.7,2.4c0.6-0.2,1.2-0.4,1.8-0.6c-0.4-0.7-0.8-1.4-1.2-2.1
				c0,0,0.1,0,0.1,0c0.5,0.6,0.9,1.2,1.4,1.8c0,0,0-0.1,0.1-0.1c-0.1,0.1-0.3,0.3-0.4,0.4c0.5-0.2,1.1-0.5,1.6-0.9
				c0.5-0.4,0.4-1.3,0-1.7C353.7,348.9,353,349,352.5,349.4L352.5,349.4z"/>
		</g>
	</g>
	<polygon class="st3" points="344,357 357.9,351.3 357.7,353.1 347.8,359.2 	"/>
	<line class="st4" x1="352.7" y1="361.7" x2="360" y2="351.5"/>
	<g>
		<g>
			<path d="M356.3,358.7c0,1,0.1,1.9,0.1,2.9c0,0.9,1,1.6,1.8,1.1c0.6-0.3,0.8-0.6,1.2-1.1c-0.8-0.2-1.5-0.4-2.3-0.6
				c0.1,0.5,0.1,1,0.2,1.5c0.2,1.4,1.9,1.7,2.4,0.3c0.3-0.7,0.5-1.4,0.7-2.2c-0.8-0.1-1.6-0.2-2.4-0.3c0,1,0,2-0.1,3
				c-0.1,1.3,1.7,1.6,2.3,0.6c0.5-0.8,1-1.5,1.6-2.2c-0.7-0.4-1.4-0.8-2.1-1.2c-0.3,1.8-0.9,3.5-1.2,5.3c-0.2,1.2,1.6,2.3,2.2,0.9
				c0.3-0.6,0.6-1.2,1.1-1.7c-0.7-0.4-1.4-0.8-2.1-1.2c-0.2,1-0.5,1.8-1,2.6c0.8,0.2,1.5,0.4,2.3,0.6c-0.3-2.5,0.1-4.9,0.9-7.3
				c0.4-1.3-1.2-1.9-2.1-1.2c-1.6,1.4-3.2,2.8-4.7,4.3c0.6,0.5,1.3,1,1.9,1.5c0.3-0.3,0.6-0.7,1-1c-0.6-0.4-1.2-0.7-1.8-1.1
				c-0.1,1.4,0.1,2.7,0.4,4.1c0.7-0.4,1.4-0.8,2.1-1.2c-1.3-1.5-1.6-5.2-4.4-3.1c0.6,0.6,1.1,1.1,1.7,1.7c0.6-0.9,1.2-2,2-2.8
				c0.5-0.5,1.1-0.8,1.7-1.2c1.1-0.9,1.8-2.1,2.5-3.3c-0.7-0.3-1.5-0.6-2.2-0.9c-0.1,0.6-0.3,1.2-0.5,1.8c0.8,0.1,1.6,0.2,2.4,0.3
				c0.1-0.3,0.1-0.6,0.2-0.9c0.4-1.5-2-2.2-2.4-0.7c-0.2,0.6-0.2,1-0.3,1.6c-0.2,1.5,2,1.5,2.4,0.3c0.2-0.6,0.4-1.2,0.5-1.8
				c0.3-1.3-1.5-2.2-2.2-0.9c-0.4,0.8-0.9,1.6-1.5,2.3c-0.5,0.5-1.2,0.7-1.7,1.2c-1.2,1-2,2.5-2.9,3.8c-0.7,1,0.7,2.4,1.7,1.7
				c-0.4-0.7-0.5-0.7-0.2,0.1c0.1,0.3,0.2,0.6,0.4,0.9c0.3,0.7,0.8,1.2,1.3,1.8c0.8,1,2.3-0.1,2.1-1.2c-0.3-1.2-0.4-2.3-0.3-3.5
				c0-0.9-1.1-1.6-1.8-1.1c-0.8,0.6-1.3,1.1-1.8,1.9c-0.8,1.2,0.9,2.4,1.9,1.5c1.5-1.5,3.1-2.9,4.7-4.3c-0.7-0.4-1.4-0.8-2.1-1.2
				c-0.8,2.6-1.3,5.2-1,8c0.1,1.2,1.6,1.7,2.3,0.6c0.6-1,1-2,1.3-3.2c0.2-1.1-1.2-2.3-2.1-1.2c-0.6,0.7-1,1.4-1.5,2.2
				c0.7,0.3,1.5,0.6,2.2,0.9c0.3-1.8,0.9-3.5,1.2-5.3c0.2-1.1-1.1-2.2-2.1-1.2c-0.8,0.9-1.4,1.7-2,2.7c0.8,0.2,1.5,0.4,2.3,0.6
				c0.1-1,0.1-2,0.1-3c-0.1-1.3-2.1-1.7-2.4-0.3c-0.2,0.8-0.4,1.5-0.7,2.2c0.8,0.1,1.6,0.2,2.4,0.3c-0.1-0.5-0.1-1-0.2-1.5
				c-0.1-1.2-1.5-1.6-2.3-0.6c-0.1,0.1-0.2,0.2-0.3,0.3c0.6,0.4,1.2,0.7,1.8,1.1c0-1-0.1-1.9-0.1-2.9
				C358.7,357.1,356.3,357.1,356.3,358.7L356.3,358.7z"/>
		</g>
	</g>
	<g>
		<g>
			<path d="M359.9,353.1c-0.4,0.5-1.1,1.1-1.2,1.8c-0.1,0.6,0.2,1.4,0.9,1.5c0,0,0,0,0,0c0.5,0.1,1.1-0.1,1.4-0.6c0,0,0,0,0,0
				c0.8-1.4-1.4-2.6-2.1-1.2c0,0,0,0,0,0c0.5-0.2,0.9-0.4,1.4-0.6c0,0,0,0,0,0c0.3,0.5,0.6,1,0.9,1.5c0,0.2,0.1-0.2,0.2-0.2
				c0.1-0.2,0.3-0.3,0.4-0.5C362.7,353.7,361,352,359.9,353.1L359.9,353.1z"/>
		</g>
	</g>
	<g>
		<g>
			<path d="M359,356.8c1.6,0,1.6-2.5,0-2.5C357.4,354.3,357.4,356.8,359,356.8L359,356.8z"/>
		</g>
	</g>
	<g>
		<g>
			<path d="M358,354.9c-0.5,1.1-1.3,2.4-2.3,3.1c0.6,0.6,1.1,1.1,1.7,1.7c0.6-1,1.1-2,1.8-3c1-1.2-0.8-3-1.7-1.7
				c-0.9,1.1-1.9,2.1-3,3c-1.1,0.9-1.7,2.1-2.5,3.2c-0.9,1.3,1.2,2.5,2.1,1.2c0.8-1.1,1.4-2.1,2.5-2.9c1-0.8,1.9-1.7,2.7-2.7
				c-0.6-0.6-1.2-1.2-1.7-1.7c-0.8,1.1-1.5,2.2-2.2,3.5c-0.6,1.1,0.6,2.3,1.7,1.7c1.4-0.9,2.5-2.4,3.2-3.9
				C360.8,354.8,358.7,353.5,358,354.9L358,354.9z"/>
		</g>
	</g>
	<g>
		<g>
			<path d="M360.2,354.9c-0.1,0.2-0.2,0.3,0,0.2c0,0,0.2-0.1,0.2-0.2c0.1-0.1,0.4-0.2,0.6-0.3c1.4-0.8,0.1-2.9-1.2-2.1
				c-0.8,0.4-1.6,0.9-1.9,1.8c-0.2,0.6,0.2,1.3,0.9,1.5C359.4,355.9,360,355.5,360.2,354.9L360.2,354.9z"/>
		</g>
	</g>
	<line class="st5" x1="342" y1="357" x2="342" y2="357"/>
	<line class="st5" x1="337.9" y1="358.6" x2="363.4" y2="348.7"/>
	<g>
		<g>
			<path d="M360.1,366.2c-0.3,0.6-0.5,1.1-0.9,1.5c-0.4,0.4-0.7,0.7-0.9,1.3c-0.3,1,0.9,2,1.8,1.4c0.6-0.4,1.2-0.8,1.9-1.3
				c-0.6-0.6-1.1-1.1-1.7-1.7c-0.7,1.1-1.4,2.3-2.1,3.4c0.7,0.4,1.4,0.8,2.1,1.2c0.3-0.5,0.7-1,1.1-1.5c-0.7-0.4-1.4-0.8-2.1-1.2
				c-0.2,0.7-0.7,1.1-1.1,1.7c-0.4,0.6-0.6,1.2-0.8,1.8c-0.5,1.3,1.6,2.2,2.2,0.9c0.3-0.6,0.6-1.1,1-1.6c0.9-1.3-1.2-2.5-2.1-1.2
				c-0.4,0.5-0.7,1.1-1,1.6c0.7,0.3,1.5,0.6,2.2,0.9c0.5-1.3,1.6-2.2,1.9-3.6c0.3-1.1-1.2-2.2-2.1-1.2c-0.5,0.6-1.1,1.3-1.5,2
				c-0.8,1.4,1.3,2.6,2.1,1.2c0.7-1.1,1.4-2.3,2.1-3.4c0.6-1-0.7-2.4-1.7-1.7c-0.6,0.4-1.2,0.8-1.9,1.3c0.6,0.5,1.2,0.9,1.8,1.4
				c0,0.1,0.7-0.6,0.7-0.7c0.4-0.5,0.6-1,0.9-1.6C362.9,366,360.8,364.8,360.1,366.2L360.1,366.2z"/>
		</g>
	</g>
	<g>
		<g>
			<path d="M359.3,370.7c-0.2,0.4-0.4,0.8-0.7,1.2c-0.4,0.5-0.1,1.4,0.4,1.7c0.6,0.4,1.3,0.1,1.7-0.4c0.4-0.5,0.7-1.1,0.9-1.8
				c0.2-0.6-0.3-1.3-0.9-1.5C360.2,369.6,359.6,370,359.3,370.7L359.3,370.7z"/>
		</g>
	</g>
	<g>
		<g>
			<path d="M359.7,370.4c0,0-0.1,0-0.1,0.1c-0.5,0.3-0.8,1-0.5,1.5c0.2,0.5,0.9,0.9,1.4,0.7c0,0,0,0-0.1,0c-0.3-0.7-0.6-1.4-0.9-2.1
				c-0.3,0.3-0.4,0.6-0.4,1c0,0.7,0.6,1.2,1.2,1.2c0.7,0,1.2-0.6,1.2-1.2c0,0,0-0.1,0-0.1c-0.1,0.3-0.2,0.6-0.4,0.9c0,0,0,0,0.1-0.1
				c0.3-0.4,0.5-0.9,0.3-1.3c-0.2-0.4-0.6-0.8-1.1-0.8c-0.2,0-0.4,0-0.6,0.1c0.3,0.7,0.6,1.5,0.9,2.2c0,0,0.1,0,0.1-0.1
				c0.5-0.4,0.8-1.1,0.4-1.7C361.1,370.3,360.3,370,359.7,370.4L359.7,370.4z"/>
		</g>
	</g>
	<g>
		<g>
			<path d="M358.2,373.3c0,0.6-0.2,1.1-0.2,1.7c0,1.6,2.4,1.6,2.5,0c0-0.1,0.1-0.4,0.2-0.6c0.1-0.3,0.1-0.7,0.1-1
				c0-0.7-0.5-1.2-1.2-1.2C358.8,372.1,358.2,372.7,358.2,373.3L358.2,373.3z"/>
		</g>
	</g>
	<g>
		<g>
			<path d="M360.2,375.7c0.2-0.3,0.4-0.5,0.6-0.8c0.1-0.2,0.2-0.5,0.3-0.7c0.4-0.5,0.5-1.2,0-1.7c-0.4-0.4-1.3-0.5-1.7,0
				c-0.3,0.3-0.5,0.6-0.6,1c-0.1,0.2-0.2,0.4-0.3,0.5c-0.4,0.5-0.5,1.2,0,1.7C358.9,376.1,359.8,376.2,360.2,375.7L360.2,375.7z"/>
		</g>
	</g>
	<g>
		<g>
			<path d="M360.9,373.1C361,373,361,373,360.9,373.1C360.8,373.1,360.8,373.1,360.9,373.1c0.2-0.1,0.3-0.2,0.4-0.3
				c0.2-0.3,0.1-0.6-0.2-0.7c-0.3-0.1-0.8,0-1,0.3c0.1-0.2,0.1-0.1-0.1,0c-0.1,0.1-0.2,0.1-0.3,0.2c-0.2,0.2-0.3,0.4-0.3,0.6
				C359.3,373.9,360.7,373.8,360.9,373.1L360.9,373.1z"/>
		</g>
	</g>
	<g>
		<g>
			<path d="M361.4,372.3C361.5,372.3,361.5,372.3,361.4,372.3c-0.4,0-0.9,0.2-1.4,0.3c0,0,0,0.1,0,0.1
				C360,372.9,361.4,372.8,361.4,372.3c0,0,0-0.1,0-0.1c0-0.3-1.3,0.1-1.4,0.3c0,0,0,0,0,0.1c-0.1,0.2,0.5,0.2,0.6,0.1
				C360.9,372.7,361.3,372.6,361.4,372.3L361.4,372.3z"/>
		</g>
	</g>
	<polyline class="st0" points="240.7,426 231.2,436.2 240.5,395 255.5,393.8 269.9,389.1 288.4,386 300.5,380 318.7,377.2 
		330.7,369.7 345.6,367.9 354.1,358.7 359.7,351.9 	"/>
	<polyline class="st5" points="239.5,427.3 248.8,417.4 254.9,419.9 257.2,415.4 271.1,421.4 274.5,407.2 277.7,410.4 288.2,402 
		304.4,414.6 306.5,399.9 309.9,399.9 312.6,396.8 316.6,399.9 321.5,392.7 342,414 342,387.9 347.4,390.3 350.8,384.2 356.1,386.3 
		362.2,372.7 	"/>
</g>
</svg>
